<svg width="43" height="48" viewBox="0 0 43 48" fill="none" xmlns="http://www.w3.org/2000/svg">
<rect width="43" height="48" rx="21.5" fill="#EADDFF"/>
<path fill-rule="evenodd" clip-rule="evenodd" d="M27.9505 19.2C27.9505 23.1765 25.0627 26.4 21.5005 26.4C17.9383 26.4 15.0505 23.1765 15.0505 19.2C15.0505 15.2235 17.9383 12 21.5005 12C25.0627 12 27.9505 15.2235 27.9505 19.2ZM25.8005 19.2C25.8005 21.851 23.8753 24 21.5005 24C19.1257 24 17.2005 21.851 17.2005 19.2C17.2005 16.549 19.1257 14.4 21.5005 14.4C23.8753 14.4 25.8005 16.549 25.8005 19.2Z" fill="#21005D"/>
<path d="M21.5005 30C14.5405 30 8.61048 34.5941 6.35156 41.0305C6.90185 41.6404 7.48154 42.2174 8.08804 42.7585C9.77014 36.8492 15.047 32.4 21.5005 32.4C27.954 32.4 33.2309 36.8492 34.913 42.7585C35.5195 42.2174 36.0992 41.6404 36.6495 41.0305C34.3906 34.5941 28.4605 30 21.5005 30Z" fill="#21005D"/>
</svg>
