<svg width="17" height="17" viewBox="0 0 17 17" fill="none" xmlns="http://www.w3.org/2000/svg">
<g id="Icon / Field / Calendar" clip-path="url(#clip0_353_3300)">
<path id="Vector" d="M9.04912 10.0805C8.82245 10.0805 8.63259 10.0037 8.47952 9.85007C8.32592 9.697 8.24912 9.50714 8.24912 9.28047C8.24912 9.0538 8.32592 8.86367 8.47952 8.71007C8.63259 8.557 8.82245 8.48047 9.04912 8.48047C9.27579 8.48047 9.46592 8.557 9.61952 8.71007C9.77259 8.86367 9.84912 9.0538 9.84912 9.28047C9.84912 9.50714 9.77259 9.697 9.61952 9.85007C9.46592 10.0037 9.27579 10.0805 9.04912 10.0805ZM5.84912 10.0805C5.62245 10.0805 5.43232 10.0037 5.27872 9.85007C5.12565 9.697 5.04912 9.50714 5.04912 9.28047C5.04912 9.0538 5.12565 8.86367 5.27872 8.71007C5.43232 8.557 5.62245 8.48047 5.84912 8.48047C6.07579 8.48047 6.26592 8.557 6.41952 8.71007C6.57259 8.86367 6.64912 9.0538 6.64912 9.28047C6.64912 9.50714 6.57259 9.697 6.41952 9.85007C6.26592 10.0037 6.07579 10.0805 5.84912 10.0805ZM12.2491 10.0805C12.0225 10.0805 11.8326 10.0037 11.6795 9.85007C11.5259 9.697 11.4491 9.50714 11.4491 9.28047C11.4491 9.0538 11.5259 8.86367 11.6795 8.71007C11.8326 8.557 12.0225 8.48047 12.2491 8.48047C12.4758 8.48047 12.6657 8.557 12.8187 8.71007C12.9723 8.86367 13.0491 9.0538 13.0491 9.28047C13.0491 9.50714 12.9723 9.697 12.8187 9.85007C12.6657 10.0037 12.4758 10.0805 12.2491 10.0805ZM9.04912 13.2805C8.82245 13.2805 8.63259 13.2037 8.47952 13.0501C8.32592 12.897 8.24912 12.7071 8.24912 12.4805C8.24912 12.2538 8.32592 12.0639 8.47952 11.9109C8.63259 11.7573 8.82245 11.6805 9.04912 11.6805C9.27579 11.6805 9.46592 11.7573 9.61952 11.9109C9.77259 12.0639 9.84912 12.2538 9.84912 12.4805C9.84912 12.7071 9.77259 12.897 9.61952 13.0501C9.46592 13.2037 9.27579 13.2805 9.04912 13.2805ZM5.84912 13.2805C5.62245 13.2805 5.43232 13.2037 5.27872 13.0501C5.12565 12.897 5.04912 12.7071 5.04912 12.4805C5.04912 12.2538 5.12565 12.0639 5.27872 11.9109C5.43232 11.7573 5.62245 11.6805 5.84912 11.6805C6.07579 11.6805 6.26592 11.7573 6.41952 11.9109C6.57259 12.0639 6.64912 12.2538 6.64912 12.4805C6.64912 12.7071 6.57259 12.897 6.41952 13.0501C6.26592 13.2037 6.07579 13.2805 5.84912 13.2805ZM12.2491 13.2805C12.0225 13.2805 11.8326 13.2037 11.6795 13.0501C11.5259 12.897 11.4491 12.7071 11.4491 12.4805C11.4491 12.2538 11.5259 12.0639 11.6795 11.9109C11.8326 11.7573 12.0225 11.6805 12.2491 11.6805C12.4758 11.6805 12.6657 11.7573 12.8187 11.9109C12.9723 12.0639 13.0491 12.2538 13.0491 12.4805C13.0491 12.7071 12.9723 12.897 12.8187 13.0501C12.6657 13.2037 12.4758 13.2805 12.2491 13.2805ZM3.44912 16.4805C3.00912 16.4805 2.63232 16.3239 2.31872 16.0109C2.00565 15.6973 1.84912 15.3205 1.84912 14.8805V3.68047C1.84912 3.24047 2.00565 2.86394 2.31872 2.55087C2.63232 2.23727 3.00912 2.08047 3.44912 2.08047H4.24912V0.480469H5.84912V2.08047H12.2491V0.480469H13.8491V2.08047H14.6491C15.0891 2.08047 15.4659 2.23727 15.7795 2.55087C16.0926 2.86394 16.2491 3.24047 16.2491 3.68047V14.8805C16.2491 15.3205 16.0926 15.6973 15.7795 16.0109C15.4659 16.3239 15.0891 16.4805 14.6491 16.4805H3.44912ZM3.44912 14.8805H14.6491V6.88047H3.44912V14.8805Z" fill="#AAAAAA"/>
</g>
<defs>
<clipPath id="clip0_353_3300">
<rect width="16" height="16" fill="white" transform="translate(0.849121 0.480469)"/>
</clipPath>
</defs>
</svg>
