<svg width="516" height="231" viewBox="0 0 516 231" fill="none" xmlns="http://www.w3.org/2000/svg">
<path fill-rule="evenodd" clip-rule="evenodd" d="M0 117.357L17.2 79L34.4 134L51.6 100L68.8 23.4715L86 29.5L103.2 0L115 70.4145L137.6 93.886L154.8 46.943H172L189.2 23.4715L206.4 79L223.6 91L240.8 110.5L258 14.5L275.2 167.34L289.5 70.4145L309.6 93.886L326.8 117.357L344 29.5L366 110.5L378.4 46.943L395.6 231L412.8 117.357L430 70.4145L447.2 93.886L464.4 70.4145L481.6 9L498.8 231L515 17L516 231H498.8H481.6H464.4H447.2H430H412.8H395.6H378.4H361.2H344H326.8H309.6H292.4H275.2H258H240.8H223.6H206.4H189.2H172H154.8H137.6H120.4H103.2H86H68.8H51.6H34.4H17.2H0V117.357Z" fill="#5388D8" fill-opacity="0.6"/>
</svg>
