<svg width="555" height="300" viewBox="0 0 555 300" fill="none" xmlns="http://www.w3.org/2000/svg">
<rect width="520" height="0.700928" transform="matrix(1 0 0 -1 32 271.963)" fill="black" fill-opacity="0.12"/>
<path d="M36.5215 255.459V264.037H35.4375V256.812L33.252 257.609V256.631L36.3516 255.459H36.5215Z" fill="black" fill-opacity="0.38"/>
<path d="M52.4487 263.146V264.037H46.8647V263.258L49.6597 260.146C50.0034 259.764 50.269 259.439 50.4565 259.174C50.6479 258.904 50.7808 258.664 50.855 258.453C50.9331 258.238 50.9722 258.02 50.9722 257.797C50.9722 257.516 50.9136 257.262 50.7964 257.035C50.6831 256.805 50.5151 256.621 50.2925 256.484C50.0698 256.348 49.8003 256.279 49.4839 256.279C49.105 256.279 48.7886 256.354 48.5347 256.502C48.2847 256.646 48.0972 256.85 47.9722 257.111C47.8472 257.373 47.7847 257.674 47.7847 258.014H46.7007C46.7007 257.533 46.8062 257.094 47.0171 256.695C47.228 256.297 47.5405 255.98 47.9546 255.746C48.3687 255.508 48.8784 255.389 49.4839 255.389C50.0229 255.389 50.4839 255.484 50.8667 255.676C51.2495 255.863 51.5425 256.129 51.7456 256.473C51.9526 256.812 52.0562 257.211 52.0562 257.668C52.0562 257.918 52.0132 258.172 51.9272 258.43C51.8452 258.684 51.73 258.938 51.5815 259.191C51.437 259.445 51.2671 259.695 51.0718 259.941C50.8804 260.188 50.6753 260.43 50.4565 260.668L48.1714 263.146H52.4487Z" fill="black" fill-opacity="0.38"/>
<path d="M59.3411 259.238H60.1145C60.4934 259.238 60.8059 259.176 61.052 259.051C61.302 258.922 61.4875 258.748 61.6086 258.529C61.7336 258.307 61.7961 258.057 61.7961 257.779C61.7961 257.451 61.7415 257.176 61.6321 256.953C61.5227 256.73 61.3586 256.562 61.1399 256.449C60.9211 256.336 60.6438 256.279 60.3079 256.279C60.0032 256.279 59.7336 256.34 59.4993 256.461C59.2688 256.578 59.0872 256.746 58.9543 256.965C58.8254 257.184 58.761 257.441 58.761 257.738H57.677C57.677 257.305 57.7864 256.91 58.0051 256.555C58.2239 256.199 58.5305 255.916 58.925 255.705C59.3235 255.494 59.7844 255.389 60.3079 255.389C60.8235 255.389 61.2747 255.48 61.6614 255.664C62.0481 255.844 62.3489 256.113 62.5637 256.473C62.7786 256.828 62.886 257.271 62.886 257.803C62.886 258.018 62.8352 258.248 62.7336 258.494C62.636 258.736 62.4817 258.963 62.2708 259.174C62.0637 259.385 61.7942 259.559 61.4622 259.695C61.1301 259.828 60.7317 259.895 60.2668 259.895H59.3411V259.238ZM59.3411 260.129V259.479H60.2668C60.8098 259.479 61.259 259.543 61.6145 259.672C61.97 259.801 62.2493 259.973 62.4524 260.188C62.6594 260.402 62.804 260.639 62.886 260.896C62.9719 261.15 63.0149 261.404 63.0149 261.658C63.0149 262.057 62.9465 262.41 62.8098 262.719C62.677 263.027 62.4875 263.289 62.2415 263.504C61.9993 263.719 61.7141 263.881 61.386 263.99C61.0579 264.1 60.7004 264.154 60.3137 264.154C59.9426 264.154 59.593 264.102 59.2649 263.996C58.9407 263.891 58.6536 263.738 58.4036 263.539C58.1536 263.336 57.9583 263.088 57.8176 262.795C57.677 262.498 57.6067 262.16 57.6067 261.781H58.6907C58.6907 262.078 58.7551 262.338 58.884 262.561C59.0168 262.783 59.2043 262.957 59.4465 263.082C59.6926 263.203 59.9817 263.264 60.3137 263.264C60.6458 263.264 60.9309 263.207 61.1692 263.094C61.4114 262.977 61.5969 262.801 61.7258 262.566C61.8586 262.332 61.925 262.037 61.925 261.682C61.925 261.326 61.8508 261.035 61.7024 260.809C61.554 260.578 61.343 260.408 61.0696 260.299C60.8 260.186 60.4817 260.129 60.1145 260.129H59.3411Z" fill="black" fill-opacity="0.38"/>
<path d="M76.4246 261.166V262.057H70.2605V261.418L74.0808 255.506H74.9656L74.0164 257.217L71.491 261.166H76.4246ZM75.2351 255.506V264.037H74.1511V255.506H75.2351Z" fill="black" fill-opacity="0.38"/>
<path d="M83.9302 259.977L83.063 259.754L83.4907 255.506H87.8677V256.508H84.4106L84.1528 258.828C84.3091 258.738 84.5063 258.654 84.7446 258.576C84.9868 258.498 85.2642 258.459 85.5767 258.459C85.9712 258.459 86.3247 258.527 86.6372 258.664C86.9497 258.797 87.2153 258.988 87.4341 259.238C87.6567 259.488 87.8267 259.789 87.9438 260.141C88.061 260.492 88.1196 260.885 88.1196 261.318C88.1196 261.729 88.063 262.105 87.9497 262.449C87.8403 262.793 87.6743 263.094 87.4517 263.352C87.229 263.605 86.9478 263.803 86.6079 263.943C86.272 264.084 85.8755 264.154 85.4185 264.154C85.0747 264.154 84.7485 264.107 84.4399 264.014C84.1353 263.916 83.8618 263.77 83.6196 263.574C83.3813 263.375 83.186 263.129 83.0337 262.836C82.8853 262.539 82.7915 262.191 82.7524 261.793H83.7837C83.8306 262.113 83.9243 262.383 84.0649 262.602C84.2056 262.82 84.3892 262.986 84.6157 263.1C84.8462 263.209 85.1138 263.264 85.4185 263.264C85.6763 263.264 85.9048 263.219 86.104 263.129C86.3032 263.039 86.4712 262.91 86.6079 262.742C86.7446 262.574 86.8481 262.371 86.9185 262.133C86.9927 261.895 87.0298 261.627 87.0298 261.33C87.0298 261.061 86.9927 260.811 86.9185 260.58C86.8442 260.35 86.7329 260.148 86.5845 259.977C86.4399 259.805 86.2622 259.672 86.0513 259.578C85.8403 259.48 85.5981 259.432 85.3247 259.432C84.9614 259.432 84.686 259.48 84.4985 259.578C84.3149 259.676 84.1255 259.809 83.9302 259.977Z" fill="black" fill-opacity="0.38"/>
<path d="M99.6191 255.494H99.7129V256.414H99.6191C99.0449 256.414 98.5645 256.508 98.1777 256.695C97.791 256.879 97.4844 257.127 97.2578 257.439C97.0312 257.748 96.8672 258.096 96.7656 258.482C96.668 258.869 96.6191 259.262 96.6191 259.66V260.914C96.6191 261.293 96.6641 261.629 96.7539 261.922C96.8438 262.211 96.9668 262.455 97.123 262.654C97.2793 262.854 97.4551 263.004 97.6504 263.105C97.8496 263.207 98.0566 263.258 98.2715 263.258C98.5215 263.258 98.7441 263.211 98.9395 263.117C99.1348 263.02 99.2988 262.885 99.4316 262.713C99.5684 262.537 99.6719 262.33 99.7422 262.092C99.8125 261.854 99.8477 261.592 99.8477 261.307C99.8477 261.053 99.8164 260.809 99.7539 260.574C99.6914 260.336 99.5957 260.125 99.4668 259.941C99.3379 259.754 99.1758 259.607 98.9805 259.502C98.7891 259.393 98.5605 259.338 98.2949 259.338C97.9941 259.338 97.7129 259.412 97.4512 259.561C97.1934 259.705 96.9805 259.896 96.8125 260.135C96.6484 260.369 96.5547 260.625 96.5312 260.902L95.957 260.896C96.0117 260.459 96.1133 260.086 96.2617 259.777C96.4141 259.465 96.6016 259.211 96.8242 259.016C97.0508 258.816 97.3027 258.672 97.5801 258.582C97.8613 258.488 98.1582 258.441 98.4707 258.441C98.8965 258.441 99.2637 258.521 99.5723 258.682C99.8809 258.842 100.135 259.057 100.334 259.326C100.533 259.592 100.68 259.893 100.773 260.229C100.871 260.561 100.92 260.902 100.92 261.254C100.92 261.656 100.863 262.033 100.75 262.385C100.637 262.736 100.467 263.045 100.24 263.311C100.018 263.576 99.7422 263.783 99.4141 263.932C99.0859 264.08 98.7051 264.154 98.2715 264.154C97.8105 264.154 97.4082 264.061 97.0645 263.873C96.7207 263.682 96.4355 263.428 96.209 263.111C95.9824 262.795 95.8125 262.443 95.6992 262.057C95.5859 261.67 95.5293 261.277 95.5293 260.879V260.369C95.5293 259.768 95.5898 259.178 95.7109 258.6C95.832 258.021 96.041 257.498 96.3379 257.029C96.6387 256.561 97.0547 256.188 97.5859 255.91C98.1172 255.633 98.7949 255.494 99.6191 255.494Z" fill="black" fill-opacity="0.38"/>
<path d="M111.873 255.506V256.115L108.339 264.037H107.197L110.724 256.396H106.107V255.506H111.873Z" fill="black" fill-opacity="0.38"/>
<path d="M124.638 261.729C124.638 262.248 124.517 262.689 124.275 263.053C124.036 263.412 123.712 263.686 123.302 263.873C122.896 264.061 122.437 264.154 121.925 264.154C121.413 264.154 120.952 264.061 120.542 263.873C120.132 263.686 119.808 263.412 119.57 263.053C119.331 262.689 119.212 262.248 119.212 261.729C119.212 261.389 119.277 261.078 119.406 260.797C119.538 260.512 119.724 260.264 119.962 260.053C120.204 259.842 120.49 259.68 120.818 259.566C121.15 259.449 121.515 259.391 121.913 259.391C122.437 259.391 122.904 259.492 123.314 259.695C123.724 259.895 124.046 260.17 124.281 260.521C124.519 260.873 124.638 261.275 124.638 261.729ZM123.548 261.705C123.548 261.389 123.48 261.109 123.343 260.867C123.206 260.621 123.015 260.43 122.769 260.293C122.523 260.156 122.238 260.088 121.913 260.088C121.581 260.088 121.294 260.156 121.052 260.293C120.814 260.43 120.628 260.621 120.495 260.867C120.363 261.109 120.296 261.389 120.296 261.705C120.296 262.033 120.361 262.314 120.49 262.549C120.622 262.779 120.81 262.957 121.052 263.082C121.298 263.203 121.589 263.264 121.925 263.264C122.261 263.264 122.55 263.203 122.792 263.082C123.034 262.957 123.22 262.779 123.349 262.549C123.482 262.314 123.548 262.033 123.548 261.705ZM124.439 257.727C124.439 258.141 124.329 258.514 124.111 258.846C123.892 259.178 123.593 259.439 123.214 259.631C122.835 259.822 122.406 259.918 121.925 259.918C121.437 259.918 121.001 259.822 120.618 259.631C120.24 259.439 119.943 259.178 119.728 258.846C119.513 258.514 119.406 258.141 119.406 257.727C119.406 257.23 119.513 256.809 119.728 256.461C119.947 256.113 120.245 255.848 120.624 255.664C121.003 255.48 121.435 255.389 121.919 255.389C122.407 255.389 122.841 255.48 123.22 255.664C123.599 255.848 123.896 256.113 124.111 256.461C124.329 256.809 124.439 257.23 124.439 257.727ZM123.355 257.744C123.355 257.459 123.294 257.207 123.173 256.988C123.052 256.77 122.884 256.598 122.669 256.473C122.454 256.344 122.204 256.279 121.919 256.279C121.634 256.279 121.384 256.34 121.169 256.461C120.958 256.578 120.792 256.746 120.671 256.965C120.554 257.184 120.495 257.443 120.495 257.744C120.495 258.037 120.554 258.293 120.671 258.512C120.792 258.73 120.96 258.9 121.175 259.021C121.39 259.143 121.64 259.203 121.925 259.203C122.21 259.203 122.458 259.143 122.669 259.021C122.884 258.9 123.052 258.73 123.173 258.512C123.294 258.293 123.355 258.037 123.355 257.744Z" fill="black" fill-opacity="0.38"/>
<path d="M133.237 263.129H133.348C133.973 263.129 134.481 263.041 134.872 262.865C135.262 262.689 135.563 262.453 135.774 262.156C135.985 261.859 136.13 261.525 136.208 261.154C136.286 260.779 136.325 260.395 136.325 260V258.693C136.325 258.307 136.28 257.963 136.19 257.662C136.104 257.361 135.983 257.109 135.827 256.906C135.675 256.703 135.501 256.549 135.305 256.443C135.11 256.338 134.903 256.285 134.684 256.285C134.434 256.285 134.21 256.336 134.01 256.438C133.815 256.535 133.649 256.674 133.512 256.854C133.38 257.033 133.278 257.244 133.208 257.486C133.137 257.729 133.102 257.992 133.102 258.277C133.102 258.531 133.134 258.777 133.196 259.016C133.259 259.254 133.354 259.469 133.483 259.66C133.612 259.852 133.772 260.004 133.964 260.117C134.159 260.227 134.387 260.281 134.649 260.281C134.891 260.281 135.118 260.234 135.329 260.141C135.544 260.043 135.733 259.912 135.897 259.748C136.065 259.58 136.198 259.391 136.296 259.18C136.397 258.969 136.456 258.748 136.471 258.518H136.987C136.987 258.842 136.923 259.162 136.794 259.479C136.669 259.791 136.493 260.076 136.266 260.334C136.04 260.592 135.774 260.799 135.469 260.955C135.165 261.107 134.833 261.184 134.473 261.184C134.052 261.184 133.686 261.102 133.378 260.938C133.069 260.773 132.815 260.555 132.616 260.281C132.421 260.008 132.274 259.703 132.177 259.367C132.083 259.027 132.036 258.684 132.036 258.336C132.036 257.93 132.093 257.549 132.206 257.193C132.319 256.838 132.487 256.525 132.71 256.256C132.932 255.982 133.208 255.77 133.536 255.617C133.868 255.465 134.251 255.389 134.684 255.389C135.173 255.389 135.589 255.486 135.932 255.682C136.276 255.877 136.555 256.139 136.77 256.467C136.989 256.795 137.149 257.164 137.251 257.574C137.352 257.984 137.403 258.406 137.403 258.84V259.232C137.403 259.674 137.374 260.123 137.315 260.58C137.26 261.033 137.153 261.467 136.993 261.881C136.837 262.295 136.608 262.666 136.307 262.994C136.007 263.318 135.614 263.576 135.13 263.768C134.649 263.955 134.055 264.049 133.348 264.049H133.237V263.129Z" fill="black" fill-opacity="0.38"/>
<path d="M148.872 255.459V264.037H147.788V256.812L145.602 257.609V256.631L148.702 255.459H148.872ZM157.415 259.092V260.393C157.415 261.092 157.352 261.682 157.227 262.162C157.102 262.643 156.922 263.029 156.688 263.322C156.454 263.615 156.17 263.828 155.838 263.961C155.51 264.09 155.139 264.154 154.725 264.154C154.397 264.154 154.094 264.113 153.817 264.031C153.54 263.949 153.29 263.818 153.067 263.639C152.848 263.455 152.661 263.217 152.504 262.924C152.348 262.631 152.229 262.275 152.147 261.857C152.065 261.439 152.024 260.951 152.024 260.393V259.092C152.024 258.393 152.086 257.807 152.211 257.334C152.34 256.861 152.522 256.482 152.756 256.197C152.991 255.908 153.272 255.701 153.6 255.576C153.932 255.451 154.303 255.389 154.713 255.389C155.045 255.389 155.35 255.43 155.627 255.512C155.909 255.59 156.159 255.717 156.377 255.893C156.596 256.064 156.782 256.295 156.934 256.584C157.09 256.869 157.209 257.219 157.292 257.633C157.374 258.047 157.415 258.533 157.415 259.092ZM156.325 260.568V258.91C156.325 258.527 156.301 258.191 156.254 257.902C156.211 257.609 156.147 257.359 156.061 257.152C155.975 256.945 155.866 256.777 155.733 256.648C155.604 256.52 155.454 256.426 155.282 256.367C155.114 256.305 154.924 256.273 154.713 256.273C154.456 256.273 154.227 256.322 154.028 256.42C153.829 256.514 153.661 256.664 153.524 256.871C153.391 257.078 153.29 257.35 153.219 257.686C153.149 258.021 153.114 258.43 153.114 258.91V260.568C153.114 260.951 153.135 261.289 153.178 261.582C153.225 261.875 153.293 262.129 153.383 262.344C153.473 262.555 153.583 262.729 153.711 262.865C153.84 263.002 153.989 263.104 154.157 263.17C154.329 263.232 154.518 263.264 154.725 263.264C154.991 263.264 155.223 263.213 155.422 263.111C155.622 263.01 155.788 262.852 155.92 262.637C156.057 262.418 156.159 262.139 156.225 261.799C156.292 261.455 156.325 261.045 156.325 260.568Z" fill="black" fill-opacity="0.38"/>
<path d="M168.771 255.459V264.037H167.688V256.812L165.502 257.609V256.631L168.602 255.459H168.771ZM175.521 255.459V264.037H174.438V256.812L172.252 257.609V256.631L175.352 255.459H175.521Z" fill="black" fill-opacity="0.38"/>
<path d="M187.671 255.459V264.037H186.587V256.812L184.402 257.609V256.631L187.501 255.459H187.671ZM196.449 263.146V264.037H190.865V263.258L193.66 260.146C194.003 259.764 194.269 259.439 194.457 259.174C194.648 258.904 194.781 258.664 194.855 258.453C194.933 258.238 194.972 258.02 194.972 257.797C194.972 257.516 194.914 257.262 194.796 257.035C194.683 256.805 194.515 256.621 194.292 256.484C194.07 256.348 193.8 256.279 193.484 256.279C193.105 256.279 192.789 256.354 192.535 256.502C192.285 256.646 192.097 256.85 191.972 257.111C191.847 257.373 191.785 257.674 191.785 258.014H190.701C190.701 257.533 190.806 257.094 191.017 256.695C191.228 256.297 191.541 255.98 191.955 255.746C192.369 255.508 192.878 255.389 193.484 255.389C194.023 255.389 194.484 255.484 194.867 255.676C195.25 255.863 195.542 256.129 195.746 256.473C195.953 256.812 196.056 257.211 196.056 257.668C196.056 257.918 196.013 258.172 195.927 258.43C195.845 258.684 195.73 258.938 195.582 259.191C195.437 259.445 195.267 259.695 195.072 259.941C194.88 260.188 194.675 260.43 194.457 260.668L192.171 263.146H196.449Z" fill="black" fill-opacity="0.38"/>
<path d="M208.572 255.459V264.037H207.488V256.812L205.302 257.609V256.631L208.402 255.459H208.572ZM213.341 259.238H214.115C214.493 259.238 214.806 259.176 215.052 259.051C215.302 258.922 215.488 258.748 215.609 258.529C215.734 258.307 215.796 258.057 215.796 257.779C215.796 257.451 215.741 257.176 215.632 256.953C215.523 256.73 215.359 256.562 215.14 256.449C214.921 256.336 214.644 256.279 214.308 256.279C214.003 256.279 213.734 256.34 213.499 256.461C213.269 256.578 213.087 256.746 212.954 256.965C212.825 257.184 212.761 257.441 212.761 257.738H211.677C211.677 257.305 211.786 256.91 212.005 256.555C212.224 256.199 212.531 255.916 212.925 255.705C213.323 255.494 213.784 255.389 214.308 255.389C214.823 255.389 215.275 255.48 215.661 255.664C216.048 255.844 216.349 256.113 216.564 256.473C216.779 256.828 216.886 257.271 216.886 257.803C216.886 258.018 216.835 258.248 216.734 258.494C216.636 258.736 216.482 258.963 216.271 259.174C216.064 259.385 215.794 259.559 215.462 259.695C215.13 259.828 214.732 259.895 214.267 259.895H213.341V259.238ZM213.341 260.129V259.479H214.267C214.81 259.479 215.259 259.543 215.615 259.672C215.97 259.801 216.249 259.973 216.452 260.188C216.659 260.402 216.804 260.639 216.886 260.896C216.972 261.15 217.015 261.404 217.015 261.658C217.015 262.057 216.947 262.41 216.81 262.719C216.677 263.027 216.488 263.289 216.241 263.504C215.999 263.719 215.714 263.881 215.386 263.99C215.058 264.1 214.7 264.154 214.314 264.154C213.943 264.154 213.593 264.102 213.265 263.996C212.941 263.891 212.654 263.738 212.404 263.539C212.154 263.336 211.958 263.088 211.818 262.795C211.677 262.498 211.607 262.16 211.607 261.781H212.691C212.691 262.078 212.755 262.338 212.884 262.561C213.017 262.783 213.204 262.957 213.447 263.082C213.693 263.203 213.982 263.264 214.314 263.264C214.646 263.264 214.931 263.207 215.169 263.094C215.411 262.977 215.597 262.801 215.726 262.566C215.859 262.332 215.925 262.037 215.925 261.682C215.925 261.326 215.851 261.035 215.702 260.809C215.554 260.578 215.343 260.408 215.07 260.299C214.8 260.186 214.482 260.129 214.115 260.129H213.341Z" fill="black" fill-opacity="0.38"/>
<path d="M227.471 255.459V264.037H226.387V256.812L224.202 257.609V256.631L227.302 255.459H227.471ZM236.425 261.166V262.057H230.26V261.418L234.081 255.506H234.966L234.016 257.217L231.491 261.166H236.425ZM235.235 255.506V264.037H234.151V255.506H235.235Z" fill="black" fill-opacity="0.38"/>
<path d="M246.372 255.459V264.037H245.288V256.812L243.102 257.609V256.631L246.202 255.459H246.372ZM250.93 259.977L250.063 259.754L250.491 255.506H254.868V256.508H251.411L251.153 258.828C251.309 258.738 251.506 258.654 251.745 258.576C251.987 258.498 252.264 258.459 252.577 258.459C252.971 258.459 253.325 258.527 253.637 258.664C253.95 258.797 254.215 258.988 254.434 259.238C254.657 259.488 254.827 259.789 254.944 260.141C255.061 260.492 255.12 260.885 255.12 261.318C255.12 261.729 255.063 262.105 254.95 262.449C254.84 262.793 254.674 263.094 254.452 263.352C254.229 263.605 253.948 263.803 253.608 263.943C253.272 264.084 252.875 264.154 252.418 264.154C252.075 264.154 251.749 264.107 251.44 264.014C251.135 263.916 250.862 263.77 250.62 263.574C250.381 263.375 250.186 263.129 250.034 262.836C249.885 262.539 249.792 262.191 249.752 261.793H250.784C250.831 262.113 250.924 262.383 251.065 262.602C251.206 262.82 251.389 262.986 251.616 263.1C251.846 263.209 252.114 263.264 252.418 263.264C252.676 263.264 252.905 263.219 253.104 263.129C253.303 263.039 253.471 262.91 253.608 262.742C253.745 262.574 253.848 262.371 253.918 262.133C253.993 261.895 254.03 261.627 254.03 261.33C254.03 261.061 253.993 260.811 253.918 260.58C253.844 260.35 253.733 260.148 253.584 259.977C253.44 259.805 253.262 259.672 253.051 259.578C252.84 259.48 252.598 259.432 252.325 259.432C251.961 259.432 251.686 259.48 251.499 259.578C251.315 259.676 251.125 259.809 250.93 259.977Z" fill="black" fill-opacity="0.38"/>
<path d="M266.271 255.459V264.037H265.188V256.812L263.002 257.609V256.631L266.102 255.459H266.271ZM273.619 255.494H273.713V256.414H273.619C273.045 256.414 272.564 256.508 272.178 256.695C271.791 256.879 271.484 257.127 271.258 257.439C271.031 257.748 270.867 258.096 270.766 258.482C270.668 258.869 270.619 259.262 270.619 259.66V260.914C270.619 261.293 270.664 261.629 270.754 261.922C270.844 262.211 270.967 262.455 271.123 262.654C271.279 262.854 271.455 263.004 271.65 263.105C271.85 263.207 272.057 263.258 272.271 263.258C272.521 263.258 272.744 263.211 272.939 263.117C273.135 263.02 273.299 262.885 273.432 262.713C273.568 262.537 273.672 262.33 273.742 262.092C273.812 261.854 273.848 261.592 273.848 261.307C273.848 261.053 273.816 260.809 273.754 260.574C273.691 260.336 273.596 260.125 273.467 259.941C273.338 259.754 273.176 259.607 272.98 259.502C272.789 259.393 272.561 259.338 272.295 259.338C271.994 259.338 271.713 259.412 271.451 259.561C271.193 259.705 270.98 259.896 270.812 260.135C270.648 260.369 270.555 260.625 270.531 260.902L269.957 260.896C270.012 260.459 270.113 260.086 270.262 259.777C270.414 259.465 270.602 259.211 270.824 259.016C271.051 258.816 271.303 258.672 271.58 258.582C271.861 258.488 272.158 258.441 272.471 258.441C272.896 258.441 273.264 258.521 273.572 258.682C273.881 258.842 274.135 259.057 274.334 259.326C274.533 259.592 274.68 259.893 274.773 260.229C274.871 260.561 274.92 260.902 274.92 261.254C274.92 261.656 274.863 262.033 274.75 262.385C274.637 262.736 274.467 263.045 274.24 263.311C274.018 263.576 273.742 263.783 273.414 263.932C273.086 264.08 272.705 264.154 272.271 264.154C271.811 264.154 271.408 264.061 271.064 263.873C270.721 263.682 270.436 263.428 270.209 263.111C269.982 262.795 269.812 262.443 269.699 262.057C269.586 261.67 269.529 261.277 269.529 260.879V260.369C269.529 259.768 269.59 259.178 269.711 258.6C269.832 258.021 270.041 257.498 270.338 257.029C270.639 256.561 271.055 256.188 271.586 255.91C272.117 255.633 272.795 255.494 273.619 255.494Z" fill="black" fill-opacity="0.38"/>
<path d="M285.171 255.459V264.037H284.087V256.812L281.902 257.609V256.631L285.001 255.459H285.171ZM293.873 255.506V256.115L290.339 264.037H289.197L292.724 256.396H288.107V255.506H293.873Z" fill="black" fill-opacity="0.38"/>
<path d="M305.072 255.459V264.037H303.988V256.812L301.802 257.609V256.631L304.902 255.459H305.072ZM313.638 261.729C313.638 262.248 313.517 262.689 313.275 263.053C313.036 263.412 312.712 263.686 312.302 263.873C311.896 264.061 311.437 264.154 310.925 264.154C310.413 264.154 309.952 264.061 309.542 263.873C309.132 263.686 308.808 263.412 308.57 263.053C308.331 262.689 308.212 262.248 308.212 261.729C308.212 261.389 308.277 261.078 308.406 260.797C308.538 260.512 308.724 260.264 308.962 260.053C309.204 259.842 309.49 259.68 309.818 259.566C310.15 259.449 310.515 259.391 310.913 259.391C311.437 259.391 311.904 259.492 312.314 259.695C312.724 259.895 313.046 260.17 313.281 260.521C313.519 260.873 313.638 261.275 313.638 261.729ZM312.548 261.705C312.548 261.389 312.48 261.109 312.343 260.867C312.206 260.621 312.015 260.43 311.769 260.293C311.523 260.156 311.238 260.088 310.913 260.088C310.581 260.088 310.294 260.156 310.052 260.293C309.814 260.43 309.628 260.621 309.495 260.867C309.363 261.109 309.296 261.389 309.296 261.705C309.296 262.033 309.361 262.314 309.49 262.549C309.622 262.779 309.81 262.957 310.052 263.082C310.298 263.203 310.589 263.264 310.925 263.264C311.261 263.264 311.55 263.203 311.792 263.082C312.034 262.957 312.22 262.779 312.349 262.549C312.482 262.314 312.548 262.033 312.548 261.705ZM313.439 257.727C313.439 258.141 313.329 258.514 313.111 258.846C312.892 259.178 312.593 259.439 312.214 259.631C311.835 259.822 311.406 259.918 310.925 259.918C310.437 259.918 310.001 259.822 309.618 259.631C309.24 259.439 308.943 259.178 308.728 258.846C308.513 258.514 308.406 258.141 308.406 257.727C308.406 257.23 308.513 256.809 308.728 256.461C308.947 256.113 309.245 255.848 309.624 255.664C310.003 255.48 310.435 255.389 310.919 255.389C311.407 255.389 311.841 255.48 312.22 255.664C312.599 255.848 312.896 256.113 313.111 256.461C313.329 256.809 313.439 257.23 313.439 257.727ZM312.355 257.744C312.355 257.459 312.294 257.207 312.173 256.988C312.052 256.77 311.884 256.598 311.669 256.473C311.454 256.344 311.204 256.279 310.919 256.279C310.634 256.279 310.384 256.34 310.169 256.461C309.958 256.578 309.792 256.746 309.671 256.965C309.554 257.184 309.495 257.443 309.495 257.744C309.495 258.037 309.554 258.293 309.671 258.512C309.792 258.73 309.96 258.9 310.175 259.021C310.39 259.143 310.64 259.203 310.925 259.203C311.21 259.203 311.458 259.143 311.669 259.021C311.884 258.9 312.052 258.73 312.173 258.512C312.294 258.293 312.355 258.037 312.355 257.744Z" fill="black" fill-opacity="0.38"/>
<path d="M325.971 255.459V264.037H324.887V256.812L322.702 257.609V256.631L325.802 255.459H325.971ZM330.237 263.129H330.348C330.973 263.129 331.481 263.041 331.872 262.865C332.262 262.689 332.563 262.453 332.774 262.156C332.985 261.859 333.13 261.525 333.208 261.154C333.286 260.779 333.325 260.395 333.325 260V258.693C333.325 258.307 333.28 257.963 333.19 257.662C333.104 257.361 332.983 257.109 332.827 256.906C332.675 256.703 332.501 256.549 332.305 256.443C332.11 256.338 331.903 256.285 331.684 256.285C331.434 256.285 331.21 256.336 331.01 256.438C330.815 256.535 330.649 256.674 330.512 256.854C330.38 257.033 330.278 257.244 330.208 257.486C330.137 257.729 330.102 257.992 330.102 258.277C330.102 258.531 330.134 258.777 330.196 259.016C330.259 259.254 330.354 259.469 330.483 259.66C330.612 259.852 330.772 260.004 330.964 260.117C331.159 260.227 331.387 260.281 331.649 260.281C331.891 260.281 332.118 260.234 332.329 260.141C332.544 260.043 332.733 259.912 332.897 259.748C333.065 259.58 333.198 259.391 333.296 259.18C333.397 258.969 333.456 258.748 333.471 258.518H333.987C333.987 258.842 333.923 259.162 333.794 259.479C333.669 259.791 333.493 260.076 333.266 260.334C333.04 260.592 332.774 260.799 332.469 260.955C332.165 261.107 331.833 261.184 331.473 261.184C331.052 261.184 330.686 261.102 330.378 260.938C330.069 260.773 329.815 260.555 329.616 260.281C329.421 260.008 329.274 259.703 329.177 259.367C329.083 259.027 329.036 258.684 329.036 258.336C329.036 257.93 329.093 257.549 329.206 257.193C329.319 256.838 329.487 256.525 329.71 256.256C329.932 255.982 330.208 255.77 330.536 255.617C330.868 255.465 331.251 255.389 331.684 255.389C332.173 255.389 332.589 255.486 332.932 255.682C333.276 255.877 333.555 256.139 333.77 256.467C333.989 256.795 334.149 257.164 334.251 257.574C334.352 257.984 334.403 258.406 334.403 258.84V259.232C334.403 259.674 334.374 260.123 334.315 260.58C334.26 261.033 334.153 261.467 333.993 261.881C333.837 262.295 333.608 262.666 333.307 262.994C333.007 263.318 332.614 263.576 332.13 263.768C331.649 263.955 331.055 264.049 330.348 264.049H330.237V263.129Z" fill="black" fill-opacity="0.38"/>
<path d="M346.899 263.146V264.037H341.315V263.258L344.11 260.146C344.453 259.764 344.719 259.439 344.906 259.174C345.098 258.904 345.231 258.664 345.305 258.453C345.383 258.238 345.422 258.02 345.422 257.797C345.422 257.516 345.364 257.262 345.246 257.035C345.133 256.805 344.965 256.621 344.742 256.484C344.52 256.348 344.25 256.279 343.934 256.279C343.555 256.279 343.239 256.354 342.985 256.502C342.735 256.646 342.547 256.85 342.422 257.111C342.297 257.373 342.235 257.674 342.235 258.014H341.151C341.151 257.533 341.256 257.094 341.467 256.695C341.678 256.297 341.99 255.98 342.405 255.746C342.819 255.508 343.328 255.389 343.934 255.389C344.473 255.389 344.934 255.484 345.317 255.676C345.699 255.863 345.992 256.129 346.196 256.473C346.403 256.812 346.506 257.211 346.506 257.668C346.506 257.918 346.463 258.172 346.377 258.43C346.295 258.684 346.18 258.938 346.031 259.191C345.887 259.445 345.717 259.695 345.522 259.941C345.33 260.188 345.125 260.43 344.906 260.668L342.621 263.146H346.899ZM353.414 259.092V260.393C353.414 261.092 353.352 261.682 353.227 262.162C353.102 262.643 352.922 263.029 352.688 263.322C352.453 263.615 352.17 263.828 351.838 263.961C351.51 264.09 351.139 264.154 350.725 264.154C350.397 264.154 350.094 264.113 349.817 264.031C349.539 263.949 349.289 263.818 349.067 263.639C348.848 263.455 348.66 263.217 348.504 262.924C348.348 262.631 348.229 262.275 348.147 261.857C348.065 261.439 348.024 260.951 348.024 260.393V259.092C348.024 258.393 348.086 257.807 348.211 257.334C348.34 256.861 348.522 256.482 348.756 256.197C348.99 255.908 349.272 255.701 349.6 255.576C349.932 255.451 350.303 255.389 350.713 255.389C351.045 255.389 351.35 255.43 351.627 255.512C351.908 255.59 352.158 255.717 352.377 255.893C352.596 256.064 352.781 256.295 352.934 256.584C353.09 256.869 353.209 257.219 353.291 257.633C353.373 258.047 353.414 258.533 353.414 259.092ZM352.324 260.568V258.91C352.324 258.527 352.301 258.191 352.254 257.902C352.211 257.609 352.147 257.359 352.061 257.152C351.975 256.945 351.865 256.777 351.733 256.648C351.604 256.52 351.453 256.426 351.281 256.367C351.114 256.305 350.924 256.273 350.713 256.273C350.455 256.273 350.227 256.322 350.028 256.42C349.828 256.514 349.66 256.664 349.524 256.871C349.391 257.078 349.289 257.35 349.219 257.686C349.149 258.021 349.114 258.43 349.114 258.91V260.568C349.114 260.951 349.135 261.289 349.178 261.582C349.225 261.875 349.293 262.129 349.383 262.344C349.473 262.555 349.582 262.729 349.711 262.865C349.84 263.002 349.989 263.104 350.156 263.17C350.328 263.232 350.518 263.264 350.725 263.264C350.99 263.264 351.223 263.213 351.422 263.111C351.621 263.01 351.787 262.852 351.92 262.637C352.057 262.418 352.158 262.139 352.225 261.799C352.291 261.455 352.324 261.045 352.324 260.568Z" fill="black" fill-opacity="0.38"/>
<path d="M365.799 263.146V264.037H360.215V263.258L363.01 260.146C363.354 259.764 363.619 259.439 363.807 259.174C363.998 258.904 364.131 258.664 364.205 258.453C364.283 258.238 364.322 258.02 364.322 257.797C364.322 257.516 364.264 257.262 364.146 257.035C364.033 256.805 363.865 256.621 363.643 256.484C363.42 256.348 363.15 256.279 362.834 256.279C362.455 256.279 362.139 256.354 361.885 256.502C361.635 256.646 361.447 256.85 361.322 257.111C361.197 257.373 361.135 257.674 361.135 258.014H360.051C360.051 257.533 360.156 257.094 360.367 256.695C360.578 256.297 360.891 255.98 361.305 255.746C361.719 255.508 362.229 255.389 362.834 255.389C363.373 255.389 363.834 255.484 364.217 255.676C364.6 255.863 364.893 256.129 365.096 256.473C365.303 256.812 365.406 257.211 365.406 257.668C365.406 257.918 365.363 258.172 365.277 258.43C365.195 258.684 365.08 258.938 364.932 259.191C364.787 259.445 364.617 259.695 364.422 259.941C364.23 260.188 364.025 260.43 363.807 260.668L361.521 263.146H365.799ZM370.521 255.459V264.037H369.438V256.812L367.252 257.609V256.631L370.352 255.459H370.521Z" fill="black" fill-opacity="0.38"/>
<path d="M385.699 263.146V264.037H380.115V263.258L382.91 260.146C383.253 259.764 383.519 259.439 383.707 259.174C383.898 258.904 384.031 258.664 384.105 258.453C384.183 258.238 384.222 258.02 384.222 257.797C384.222 257.516 384.164 257.262 384.046 257.035C383.933 256.805 383.765 256.621 383.542 256.484C383.32 256.348 383.05 256.279 382.734 256.279C382.355 256.279 382.039 256.354 381.785 256.502C381.535 256.646 381.347 256.85 381.222 257.111C381.097 257.373 381.035 257.674 381.035 258.014H379.951C379.951 257.533 380.056 257.094 380.267 256.695C380.478 256.297 380.791 255.98 381.205 255.746C381.619 255.508 382.128 255.389 382.734 255.389C383.273 255.389 383.734 255.484 384.117 255.676C384.5 255.863 384.792 256.129 384.996 256.473C385.203 256.812 385.306 257.211 385.306 257.668C385.306 257.918 385.263 258.172 385.177 258.43C385.095 258.684 384.98 258.938 384.832 259.191C384.687 259.445 384.517 259.695 384.322 259.941C384.13 260.188 383.925 260.43 383.707 260.668L381.421 263.146H385.699ZM392.449 263.146V264.037H386.865V263.258L389.66 260.146C390.003 259.764 390.269 259.439 390.457 259.174C390.648 258.904 390.781 258.664 390.855 258.453C390.933 258.238 390.972 258.02 390.972 257.797C390.972 257.516 390.914 257.262 390.796 257.035C390.683 256.805 390.515 256.621 390.292 256.484C390.07 256.348 389.8 256.279 389.484 256.279C389.105 256.279 388.789 256.354 388.535 256.502C388.285 256.646 388.097 256.85 387.972 257.111C387.847 257.373 387.785 257.674 387.785 258.014H386.701C386.701 257.533 386.806 257.094 387.017 256.695C387.228 256.297 387.541 255.98 387.955 255.746C388.369 255.508 388.878 255.389 389.484 255.389C390.023 255.389 390.484 255.484 390.867 255.676C391.25 255.863 391.542 256.129 391.746 256.473C391.953 256.812 392.056 257.211 392.056 257.668C392.056 257.918 392.013 258.172 391.927 258.43C391.845 258.684 391.73 258.938 391.582 259.191C391.437 259.445 391.267 259.695 391.072 259.941C390.88 260.188 390.675 260.43 390.457 260.668L388.171 263.146H392.449Z" fill="black" fill-opacity="0.38"/>
<path d="M405.599 263.146V264.037H400.015V263.258L402.81 260.146C403.153 259.764 403.419 259.439 403.606 259.174C403.798 258.904 403.931 258.664 404.005 258.453C404.083 258.238 404.122 258.02 404.122 257.797C404.122 257.516 404.063 257.262 403.946 257.035C403.833 256.805 403.665 256.621 403.442 256.484C403.22 256.348 402.95 256.279 402.634 256.279C402.255 256.279 401.938 256.354 401.685 256.502C401.435 256.646 401.247 256.85 401.122 257.111C400.997 257.373 400.935 257.674 400.935 258.014H399.851C399.851 257.533 399.956 257.094 400.167 256.695C400.378 256.297 400.69 255.98 401.104 255.746C401.519 255.508 402.028 255.389 402.634 255.389C403.173 255.389 403.634 255.484 404.017 255.676C404.399 255.863 404.692 256.129 404.896 256.473C405.103 256.812 405.206 257.211 405.206 257.668C405.206 257.918 405.163 258.172 405.077 258.43C404.995 258.684 404.88 258.938 404.731 259.191C404.587 259.445 404.417 259.695 404.222 259.941C404.03 260.188 403.825 260.43 403.606 260.668L401.321 263.146H405.599ZM408.341 259.238H409.114C409.493 259.238 409.806 259.176 410.052 259.051C410.302 258.922 410.487 258.748 410.608 258.529C410.733 258.307 410.796 258.057 410.796 257.779C410.796 257.451 410.741 257.176 410.632 256.953C410.522 256.73 410.358 256.562 410.14 256.449C409.921 256.336 409.644 256.279 409.308 256.279C409.003 256.279 408.733 256.34 408.499 256.461C408.269 256.578 408.087 256.746 407.954 256.965C407.825 257.184 407.761 257.441 407.761 257.738H406.677C406.677 257.305 406.786 256.91 407.005 256.555C407.224 256.199 407.53 255.916 407.925 255.705C408.323 255.494 408.784 255.389 409.308 255.389C409.823 255.389 410.274 255.48 410.661 255.664C411.048 255.844 411.349 256.113 411.563 256.473C411.778 256.828 411.886 257.271 411.886 257.803C411.886 258.018 411.835 258.248 411.733 258.494C411.636 258.736 411.481 258.963 411.271 259.174C411.063 259.385 410.794 259.559 410.462 259.695C410.13 259.828 409.731 259.895 409.267 259.895H408.341V259.238ZM408.341 260.129V259.479H409.267C409.81 259.479 410.259 259.543 410.614 259.672C410.97 259.801 411.249 259.973 411.452 260.188C411.659 260.402 411.804 260.639 411.886 260.896C411.972 261.15 412.015 261.404 412.015 261.658C412.015 262.057 411.946 262.41 411.81 262.719C411.677 263.027 411.487 263.289 411.241 263.504C410.999 263.719 410.714 263.881 410.386 263.99C410.058 264.1 409.7 264.154 409.313 264.154C408.942 264.154 408.593 264.102 408.265 263.996C407.94 263.891 407.653 263.738 407.403 263.539C407.153 263.336 406.958 263.088 406.817 262.795C406.677 262.498 406.606 262.16 406.606 261.781H407.69C407.69 262.078 407.755 262.338 407.884 262.561C408.017 262.783 408.204 262.957 408.446 263.082C408.692 263.203 408.981 263.264 409.313 263.264C409.646 263.264 409.931 263.207 410.169 263.094C410.411 262.977 410.597 262.801 410.726 262.566C410.858 262.332 410.925 262.037 410.925 261.682C410.925 261.326 410.851 261.035 410.702 260.809C410.554 260.578 410.343 260.408 410.069 260.299C409.8 260.186 409.481 260.129 409.114 260.129H408.341Z" fill="black" fill-opacity="0.38"/>
<path d="M424.499 263.146V264.037H418.915V263.258L421.71 260.146C422.053 259.764 422.319 259.439 422.507 259.174C422.698 258.904 422.831 258.664 422.905 258.453C422.983 258.238 423.022 258.02 423.022 257.797C423.022 257.516 422.964 257.262 422.846 257.035C422.733 256.805 422.565 256.621 422.343 256.484C422.12 256.348 421.85 256.279 421.534 256.279C421.155 256.279 420.839 256.354 420.585 256.502C420.335 256.646 420.147 256.85 420.022 257.111C419.897 257.373 419.835 257.674 419.835 258.014H418.751C418.751 257.533 418.856 257.094 419.067 256.695C419.278 256.297 419.591 255.98 420.005 255.746C420.419 255.508 420.928 255.389 421.534 255.389C422.073 255.389 422.534 255.484 422.917 255.676C423.3 255.863 423.593 256.129 423.796 256.473C424.003 256.812 424.106 257.211 424.106 257.668C424.106 257.918 424.063 258.172 423.977 258.43C423.895 258.684 423.78 258.938 423.632 259.191C423.487 259.445 423.317 259.695 423.122 259.941C422.93 260.188 422.725 260.43 422.507 260.668L420.221 263.146H424.499ZM431.425 261.166V262.057H425.26V261.418L429.081 255.506H429.966L429.016 257.217L426.491 261.166H431.425ZM430.235 255.506V264.037H429.151V255.506H430.235Z" fill="black" fill-opacity="0.38"/>
<path d="M445.399 263.146V264.037H439.815V263.258L442.61 260.146C442.953 259.764 443.219 259.439 443.406 259.174C443.598 258.904 443.731 258.664 443.805 258.453C443.883 258.238 443.922 258.02 443.922 257.797C443.922 257.516 443.864 257.262 443.746 257.035C443.633 256.805 443.465 256.621 443.242 256.484C443.02 256.348 442.75 256.279 442.434 256.279C442.055 256.279 441.739 256.354 441.485 256.502C441.235 256.646 441.047 256.85 440.922 257.111C440.797 257.373 440.735 257.674 440.735 258.014H439.651C439.651 257.533 439.756 257.094 439.967 256.695C440.178 256.297 440.49 255.98 440.905 255.746C441.319 255.508 441.828 255.389 442.434 255.389C442.973 255.389 443.434 255.484 443.817 255.676C444.199 255.863 444.492 256.129 444.696 256.473C444.903 256.812 445.006 257.211 445.006 257.668C445.006 257.918 444.963 258.172 444.877 258.43C444.795 258.684 444.68 258.938 444.531 259.191C444.387 259.445 444.217 259.695 444.022 259.941C443.83 260.188 443.625 260.43 443.406 260.668L441.121 263.146H445.399ZM447.93 259.977L447.063 259.754L447.49 255.506H451.867V256.508H448.41L448.153 258.828C448.309 258.738 448.506 258.654 448.744 258.576C448.987 258.498 449.264 258.459 449.576 258.459C449.971 258.459 450.324 258.527 450.637 258.664C450.949 258.797 451.215 258.988 451.434 259.238C451.656 259.488 451.826 259.789 451.944 260.141C452.061 260.492 452.119 260.885 452.119 261.318C452.119 261.729 452.063 262.105 451.949 262.449C451.84 262.793 451.674 263.094 451.451 263.352C451.229 263.605 450.948 263.803 450.608 263.943C450.272 264.084 449.875 264.154 449.418 264.154C449.074 264.154 448.748 264.107 448.44 264.014C448.135 263.916 447.862 263.77 447.619 263.574C447.381 263.375 447.186 263.129 447.033 262.836C446.885 262.539 446.791 262.191 446.752 261.793H447.783C447.83 262.113 447.924 262.383 448.065 262.602C448.205 262.82 448.389 262.986 448.615 263.1C448.846 263.209 449.114 263.264 449.418 263.264C449.676 263.264 449.905 263.219 450.104 263.129C450.303 263.039 450.471 262.91 450.608 262.742C450.744 262.574 450.848 262.371 450.918 262.133C450.992 261.895 451.03 261.627 451.03 261.33C451.03 261.061 450.992 260.811 450.918 260.58C450.844 260.35 450.733 260.148 450.584 259.977C450.44 259.805 450.262 259.672 450.051 259.578C449.84 259.48 449.598 259.432 449.324 259.432C448.961 259.432 448.686 259.48 448.498 259.578C448.315 259.676 448.125 259.809 447.93 259.977Z" fill="black" fill-opacity="0.38"/>
<path d="M465.299 263.146V264.037H459.715V263.258L462.51 260.146C462.854 259.764 463.119 259.439 463.307 259.174C463.498 258.904 463.631 258.664 463.705 258.453C463.783 258.238 463.822 258.02 463.822 257.797C463.822 257.516 463.764 257.262 463.646 257.035C463.533 256.805 463.365 256.621 463.143 256.484C462.92 256.348 462.65 256.279 462.334 256.279C461.955 256.279 461.639 256.354 461.385 256.502C461.135 256.646 460.947 256.85 460.822 257.111C460.697 257.373 460.635 257.674 460.635 258.014H459.551C459.551 257.533 459.656 257.094 459.867 256.695C460.078 256.297 460.391 255.98 460.805 255.746C461.219 255.508 461.729 255.389 462.334 255.389C462.873 255.389 463.334 255.484 463.717 255.676C464.1 255.863 464.393 256.129 464.596 256.473C464.803 256.812 464.906 257.211 464.906 257.668C464.906 257.918 464.863 258.172 464.777 258.43C464.695 258.684 464.58 258.938 464.432 259.191C464.287 259.445 464.117 259.695 463.922 259.941C463.73 260.188 463.525 260.43 463.307 260.668L461.021 263.146H465.299ZM470.619 255.494H470.713V256.414H470.619C470.045 256.414 469.564 256.508 469.178 256.695C468.791 256.879 468.484 257.127 468.258 257.439C468.031 257.748 467.867 258.096 467.766 258.482C467.668 258.869 467.619 259.262 467.619 259.66V260.914C467.619 261.293 467.664 261.629 467.754 261.922C467.844 262.211 467.967 262.455 468.123 262.654C468.279 262.854 468.455 263.004 468.65 263.105C468.85 263.207 469.057 263.258 469.271 263.258C469.521 263.258 469.744 263.211 469.939 263.117C470.135 263.02 470.299 262.885 470.432 262.713C470.568 262.537 470.672 262.33 470.742 262.092C470.812 261.854 470.848 261.592 470.848 261.307C470.848 261.053 470.816 260.809 470.754 260.574C470.691 260.336 470.596 260.125 470.467 259.941C470.338 259.754 470.176 259.607 469.98 259.502C469.789 259.393 469.561 259.338 469.295 259.338C468.994 259.338 468.713 259.412 468.451 259.561C468.193 259.705 467.98 259.896 467.812 260.135C467.648 260.369 467.555 260.625 467.531 260.902L466.957 260.896C467.012 260.459 467.113 260.086 467.262 259.777C467.414 259.465 467.602 259.211 467.824 259.016C468.051 258.816 468.303 258.672 468.58 258.582C468.861 258.488 469.158 258.441 469.471 258.441C469.896 258.441 470.264 258.521 470.572 258.682C470.881 258.842 471.135 259.057 471.334 259.326C471.533 259.592 471.68 259.893 471.773 260.229C471.871 260.561 471.92 260.902 471.92 261.254C471.92 261.656 471.863 262.033 471.75 262.385C471.637 262.736 471.467 263.045 471.24 263.311C471.018 263.576 470.742 263.783 470.414 263.932C470.086 264.08 469.705 264.154 469.271 264.154C468.811 264.154 468.408 264.061 468.064 263.873C467.721 263.682 467.436 263.428 467.209 263.111C466.982 262.795 466.812 262.443 466.699 262.057C466.586 261.67 466.529 261.277 466.529 260.879V260.369C466.529 259.768 466.59 259.178 466.711 258.6C466.832 258.021 467.041 257.498 467.338 257.029C467.639 256.561 468.055 256.188 468.586 255.91C469.117 255.633 469.795 255.494 470.619 255.494Z" fill="black" fill-opacity="0.38"/>
<path d="M484.199 263.146V264.037H478.615V263.258L481.41 260.146C481.753 259.764 482.019 259.439 482.207 259.174C482.398 258.904 482.531 258.664 482.605 258.453C482.683 258.238 482.722 258.02 482.722 257.797C482.722 257.516 482.664 257.262 482.546 257.035C482.433 256.805 482.265 256.621 482.042 256.484C481.82 256.348 481.55 256.279 481.234 256.279C480.855 256.279 480.539 256.354 480.285 256.502C480.035 256.646 479.847 256.85 479.722 257.111C479.597 257.373 479.535 257.674 479.535 258.014H478.451C478.451 257.533 478.556 257.094 478.767 256.695C478.978 256.297 479.291 255.98 479.705 255.746C480.119 255.508 480.628 255.389 481.234 255.389C481.773 255.389 482.234 255.484 482.617 255.676C483 255.863 483.292 256.129 483.496 256.473C483.703 256.812 483.806 257.211 483.806 257.668C483.806 257.918 483.763 258.172 483.677 258.43C483.595 258.684 483.48 258.938 483.332 259.191C483.187 259.445 483.017 259.695 482.822 259.941C482.63 260.188 482.425 260.43 482.207 260.668L479.921 263.146H484.199ZM490.873 255.506V256.115L487.339 264.037H486.197L489.724 256.396H485.107V255.506H490.873Z" fill="black" fill-opacity="0.38"/>
<path d="M503.099 263.146V264.037H497.515V263.258L500.31 260.146C500.653 259.764 500.919 259.439 501.106 259.174C501.298 258.904 501.431 258.664 501.505 258.453C501.583 258.238 501.622 258.02 501.622 257.797C501.622 257.516 501.563 257.262 501.446 257.035C501.333 256.805 501.165 256.621 500.942 256.484C500.72 256.348 500.45 256.279 500.134 256.279C499.755 256.279 499.438 256.354 499.185 256.502C498.935 256.646 498.747 256.85 498.622 257.111C498.497 257.373 498.435 257.674 498.435 258.014H497.351C497.351 257.533 497.456 257.094 497.667 256.695C497.878 256.297 498.19 255.98 498.604 255.746C499.019 255.508 499.528 255.389 500.134 255.389C500.673 255.389 501.134 255.484 501.517 255.676C501.899 255.863 502.192 256.129 502.396 256.473C502.603 256.812 502.706 257.211 502.706 257.668C502.706 257.918 502.663 258.172 502.577 258.43C502.495 258.684 502.38 258.938 502.231 259.191C502.087 259.445 501.917 259.695 501.722 259.941C501.53 260.188 501.325 260.43 501.106 260.668L498.821 263.146H503.099ZM509.638 261.729C509.638 262.248 509.517 262.689 509.274 263.053C509.036 263.412 508.712 263.686 508.302 263.873C507.896 264.061 507.437 264.154 506.925 264.154C506.413 264.154 505.952 264.061 505.542 263.873C505.132 263.686 504.808 263.412 504.569 263.053C504.331 262.689 504.212 262.248 504.212 261.729C504.212 261.389 504.276 261.078 504.405 260.797C504.538 260.512 504.724 260.264 504.962 260.053C505.204 259.842 505.489 259.68 505.817 259.566C506.149 259.449 506.515 259.391 506.913 259.391C507.437 259.391 507.903 259.492 508.313 259.695C508.724 259.895 509.046 260.17 509.28 260.521C509.519 260.873 509.638 261.275 509.638 261.729ZM508.548 261.705C508.548 261.389 508.479 261.109 508.343 260.867C508.206 260.621 508.015 260.43 507.769 260.293C507.522 260.156 507.237 260.088 506.913 260.088C506.581 260.088 506.294 260.156 506.052 260.293C505.813 260.43 505.628 260.621 505.495 260.867C505.362 261.109 505.296 261.389 505.296 261.705C505.296 262.033 505.36 262.314 505.489 262.549C505.622 262.779 505.81 262.957 506.052 263.082C506.298 263.203 506.589 263.264 506.925 263.264C507.261 263.264 507.55 263.203 507.792 263.082C508.034 262.957 508.22 262.779 508.349 262.549C508.481 262.314 508.548 262.033 508.548 261.705ZM509.438 257.727C509.438 258.141 509.329 258.514 509.11 258.846C508.892 259.178 508.593 259.439 508.214 259.631C507.835 259.822 507.405 259.918 506.925 259.918C506.437 259.918 506.001 259.822 505.618 259.631C505.239 259.439 504.942 259.178 504.728 258.846C504.513 258.514 504.405 258.141 504.405 257.727C504.405 257.23 504.513 256.809 504.728 256.461C504.946 256.113 505.245 255.848 505.624 255.664C506.003 255.48 506.435 255.389 506.919 255.389C507.407 255.389 507.841 255.48 508.22 255.664C508.599 255.848 508.896 256.113 509.11 256.461C509.329 256.809 509.438 257.23 509.438 257.727ZM508.354 257.744C508.354 257.459 508.294 257.207 508.173 256.988C508.052 256.77 507.884 256.598 507.669 256.473C507.454 256.344 507.204 256.279 506.919 256.279C506.634 256.279 506.384 256.34 506.169 256.461C505.958 256.578 505.792 256.746 505.671 256.965C505.554 257.184 505.495 257.443 505.495 257.744C505.495 258.037 505.554 258.293 505.671 258.512C505.792 258.73 505.96 258.9 506.175 259.021C506.39 259.143 506.64 259.203 506.925 259.203C507.21 259.203 507.458 259.143 507.669 259.021C507.884 258.9 508.052 258.73 508.173 258.512C508.294 258.293 508.354 258.037 508.354 257.744Z" fill="black" fill-opacity="0.38"/>
<path d="M521.999 263.146V264.037H516.415V263.258L519.21 260.146C519.553 259.764 519.819 259.439 520.007 259.174C520.198 258.904 520.331 258.664 520.405 258.453C520.483 258.238 520.522 258.02 520.522 257.797C520.522 257.516 520.464 257.262 520.346 257.035C520.233 256.805 520.065 256.621 519.843 256.484C519.62 256.348 519.35 256.279 519.034 256.279C518.655 256.279 518.339 256.354 518.085 256.502C517.835 256.646 517.647 256.85 517.522 257.111C517.397 257.373 517.335 257.674 517.335 258.014H516.251C516.251 257.533 516.356 257.094 516.567 256.695C516.778 256.297 517.091 255.98 517.505 255.746C517.919 255.508 518.428 255.389 519.034 255.389C519.573 255.389 520.034 255.484 520.417 255.676C520.8 255.863 521.093 256.129 521.296 256.473C521.503 256.812 521.606 257.211 521.606 257.668C521.606 257.918 521.563 258.172 521.477 258.43C521.395 258.684 521.28 258.938 521.132 259.191C520.987 259.445 520.817 259.695 520.622 259.941C520.43 260.188 520.225 260.43 520.007 260.668L517.721 263.146H521.999ZM524.237 263.129H524.348C524.973 263.129 525.481 263.041 525.872 262.865C526.262 262.689 526.563 262.453 526.774 262.156C526.985 261.859 527.13 261.525 527.208 261.154C527.286 260.779 527.325 260.395 527.325 260V258.693C527.325 258.307 527.28 257.963 527.19 257.662C527.104 257.361 526.983 257.109 526.827 256.906C526.675 256.703 526.501 256.549 526.305 256.443C526.11 256.338 525.903 256.285 525.684 256.285C525.434 256.285 525.21 256.336 525.01 256.438C524.815 256.535 524.649 256.674 524.512 256.854C524.38 257.033 524.278 257.244 524.208 257.486C524.137 257.729 524.102 257.992 524.102 258.277C524.102 258.531 524.134 258.777 524.196 259.016C524.259 259.254 524.354 259.469 524.483 259.66C524.612 259.852 524.772 260.004 524.964 260.117C525.159 260.227 525.387 260.281 525.649 260.281C525.891 260.281 526.118 260.234 526.329 260.141C526.544 260.043 526.733 259.912 526.897 259.748C527.065 259.58 527.198 259.391 527.296 259.18C527.397 258.969 527.456 258.748 527.471 258.518H527.987C527.987 258.842 527.923 259.162 527.794 259.479C527.669 259.791 527.493 260.076 527.266 260.334C527.04 260.592 526.774 260.799 526.469 260.955C526.165 261.107 525.833 261.184 525.473 261.184C525.052 261.184 524.686 261.102 524.378 260.938C524.069 260.773 523.815 260.555 523.616 260.281C523.421 260.008 523.274 259.703 523.177 259.367C523.083 259.027 523.036 258.684 523.036 258.336C523.036 257.93 523.093 257.549 523.206 257.193C523.319 256.838 523.487 256.525 523.71 256.256C523.932 255.982 524.208 255.77 524.536 255.617C524.868 255.465 525.251 255.389 525.684 255.389C526.173 255.389 526.589 255.486 526.932 255.682C527.276 255.877 527.555 256.139 527.77 256.467C527.989 256.795 528.149 257.164 528.251 257.574C528.352 257.984 528.403 258.406 528.403 258.84V259.232C528.403 259.674 528.374 260.123 528.315 260.58C528.26 261.033 528.153 261.467 527.993 261.881C527.837 262.295 527.608 262.666 527.307 262.994C527.007 263.318 526.614 263.576 526.13 263.768C525.649 263.955 525.055 264.049 524.348 264.049H524.237V263.129Z" fill="black" fill-opacity="0.38"/>
<path d="M536.891 259.238H537.664C538.043 259.238 538.356 259.176 538.602 259.051C538.852 258.922 539.037 258.748 539.158 258.529C539.283 258.307 539.346 258.057 539.346 257.779C539.346 257.451 539.291 257.176 539.182 256.953C539.072 256.73 538.908 256.562 538.69 256.449C538.471 256.336 538.194 256.279 537.858 256.279C537.553 256.279 537.283 256.34 537.049 256.461C536.819 256.578 536.637 256.746 536.504 256.965C536.375 257.184 536.311 257.441 536.311 257.738H535.227C535.227 257.305 535.336 256.91 535.555 256.555C535.774 256.199 536.08 255.916 536.475 255.705C536.873 255.494 537.334 255.389 537.858 255.389C538.373 255.389 538.824 255.48 539.211 255.664C539.598 255.844 539.899 256.113 540.113 256.473C540.328 256.828 540.436 257.271 540.436 257.803C540.436 258.018 540.385 258.248 540.283 258.494C540.186 258.736 540.031 258.963 539.821 259.174C539.613 259.385 539.344 259.559 539.012 259.695C538.68 259.828 538.281 259.895 537.817 259.895H536.891V259.238ZM536.891 260.129V259.479H537.817C538.36 259.479 538.809 259.543 539.164 259.672C539.52 259.801 539.799 259.973 540.002 260.188C540.209 260.402 540.354 260.639 540.436 260.896C540.522 261.15 540.565 261.404 540.565 261.658C540.565 262.057 540.496 262.41 540.36 262.719C540.227 263.027 540.037 263.289 539.791 263.504C539.549 263.719 539.264 263.881 538.936 263.99C538.608 264.1 538.25 264.154 537.863 264.154C537.492 264.154 537.143 264.102 536.815 263.996C536.49 263.891 536.203 263.738 535.953 263.539C535.703 263.336 535.508 263.088 535.367 262.795C535.227 262.498 535.156 262.16 535.156 261.781H536.24C536.24 262.078 536.305 262.338 536.434 262.561C536.567 262.783 536.754 262.957 536.996 263.082C537.242 263.203 537.531 263.264 537.863 263.264C538.196 263.264 538.481 263.207 538.719 263.094C538.961 262.977 539.147 262.801 539.276 262.566C539.408 262.332 539.475 262.037 539.475 261.682C539.475 261.326 539.401 261.035 539.252 260.809C539.104 260.578 538.893 260.408 538.619 260.299C538.35 260.186 538.031 260.129 537.664 260.129H536.891ZM547.414 259.092V260.393C547.414 261.092 547.352 261.682 547.227 262.162C547.102 262.643 546.922 263.029 546.688 263.322C546.453 263.615 546.17 263.828 545.838 263.961C545.51 264.09 545.139 264.154 544.725 264.154C544.397 264.154 544.094 264.113 543.817 264.031C543.539 263.949 543.289 263.818 543.067 263.639C542.848 263.455 542.66 263.217 542.504 262.924C542.348 262.631 542.229 262.275 542.147 261.857C542.065 261.439 542.024 260.951 542.024 260.393V259.092C542.024 258.393 542.086 257.807 542.211 257.334C542.34 256.861 542.522 256.482 542.756 256.197C542.99 255.908 543.272 255.701 543.6 255.576C543.932 255.451 544.303 255.389 544.713 255.389C545.045 255.389 545.35 255.43 545.627 255.512C545.908 255.59 546.158 255.717 546.377 255.893C546.596 256.064 546.781 256.295 546.934 256.584C547.09 256.869 547.209 257.219 547.291 257.633C547.373 258.047 547.414 258.533 547.414 259.092ZM546.324 260.568V258.91C546.324 258.527 546.301 258.191 546.254 257.902C546.211 257.609 546.147 257.359 546.061 257.152C545.975 256.945 545.865 256.777 545.733 256.648C545.604 256.52 545.453 256.426 545.281 256.367C545.113 256.305 544.924 256.273 544.713 256.273C544.455 256.273 544.227 256.322 544.028 256.42C543.828 256.514 543.66 256.664 543.524 256.871C543.391 257.078 543.289 257.35 543.219 257.686C543.149 258.021 543.113 258.43 543.113 258.91V260.568C543.113 260.951 543.135 261.289 543.178 261.582C543.225 261.875 543.293 262.129 543.383 262.344C543.473 262.555 543.582 262.729 543.711 262.865C543.84 263.002 543.988 263.104 544.156 263.17C544.328 263.232 544.518 263.264 544.725 263.264C544.99 263.264 545.223 263.213 545.422 263.111C545.621 263.01 545.787 262.852 545.92 262.637C546.057 262.418 546.158 262.139 546.225 261.799C546.291 261.455 546.324 261.045 546.324 260.568Z" fill="black" fill-opacity="0.38"/>
<path fill-rule="evenodd" clip-rule="evenodd" d="M32 167.774L49.2 140.888L66.4 179.439L83.6 155.607L100.8 101.966L118 106.191L135.2 85.5137L147 134.87L169.6 151.322L186.8 118.418H204L221.2 101.966L238.4 140.888L255.6 149.299L272.8 162.967L290 95.6772L307.2 202.808L321.5 134.87L341.6 151.322L358.8 167.774L376 106.191L398 162.967L410.4 118.418L427.6 247.43L444.8 167.774L462 134.87L479.2 151.322L496.4 134.87L513.6 91.8221L530.8 247.43L547 97.4296L548 247.43H530.8H513.6H496.4H479.2H462H444.8H427.6H410.4H393.2H376H358.8H341.6H324.4H307.2H290H272.8H255.6H238.4H221.2H204H186.8H169.6H152.4H135.2H118H100.8H83.6H66.4H49.2H32V167.774Z" fill="#5388D8" fill-opacity="0.4"/>
<path d="M6.29883 95.623V96.5137H0.714844V95.7344L3.50977 92.623C3.85352 92.2402 4.11914 91.916 4.30664 91.6504C4.49805 91.3809 4.63086 91.1406 4.70508 90.9297C4.7832 90.7148 4.82227 90.4961 4.82227 90.2734C4.82227 89.9922 4.76367 89.7383 4.64648 89.5117C4.5332 89.2812 4.36523 89.0977 4.14258 88.9609C3.91992 88.8242 3.65039 88.7559 3.33398 88.7559C2.95508 88.7559 2.63867 88.8301 2.38477 88.9785C2.13477 89.123 1.94727 89.3262 1.82227 89.5879C1.69727 89.8496 1.63477 90.1504 1.63477 90.4902H0.550781C0.550781 90.0098 0.65625 89.5703 0.867188 89.1719C1.07812 88.7734 1.39062 88.457 1.80469 88.2227C2.21875 87.9844 2.72852 87.8652 3.33398 87.8652C3.87305 87.8652 4.33398 87.9609 4.7168 88.1523C5.09961 88.3398 5.39258 88.6055 5.5957 88.9492C5.80273 89.2891 5.90625 89.6875 5.90625 90.1445C5.90625 90.3945 5.86328 90.6484 5.77734 90.9062C5.69531 91.1602 5.58008 91.4141 5.43164 91.668C5.28711 91.9219 5.11719 92.1719 4.92188 92.418C4.73047 92.6641 4.52539 92.9062 4.30664 93.1445L2.02148 95.623H6.29883ZM8.83008 92.4531L7.96289 92.2305L8.39062 87.9824H12.7676V88.9844H9.31055L9.05273 91.3047C9.20898 91.2148 9.40625 91.1309 9.64453 91.0527C9.88672 90.9746 10.1641 90.9355 10.4766 90.9355C10.8711 90.9355 11.2246 91.0039 11.5371 91.1406C11.8496 91.2734 12.1152 91.4648 12.334 91.7148C12.5566 91.9648 12.7266 92.2656 12.8438 92.6172C12.9609 92.9688 13.0195 93.3613 13.0195 93.7949C13.0195 94.2051 12.9629 94.582 12.8496 94.9258C12.7402 95.2695 12.5742 95.5703 12.3516 95.8281C12.1289 96.082 11.8477 96.2793 11.5078 96.4199C11.1719 96.5605 10.7754 96.6309 10.3184 96.6309C9.97461 96.6309 9.64844 96.584 9.33984 96.4902C9.03516 96.3926 8.76172 96.2461 8.51953 96.0508C8.28125 95.8516 8.08594 95.6055 7.93359 95.3125C7.78516 95.0156 7.69141 94.668 7.65234 94.2695H8.68359C8.73047 94.5898 8.82422 94.8594 8.96484 95.0781C9.10547 95.2969 9.28906 95.4629 9.51562 95.5762C9.74609 95.6855 10.0137 95.7402 10.3184 95.7402C10.5762 95.7402 10.8047 95.6953 11.0039 95.6055C11.2031 95.5156 11.3711 95.3867 11.5078 95.2188C11.6445 95.0508 11.748 94.8477 11.8184 94.6094C11.8926 94.3711 11.9297 94.1035 11.9297 93.8066C11.9297 93.5371 11.8926 93.2871 11.8184 93.0566C11.7441 92.8262 11.6328 92.625 11.4844 92.4531C11.3398 92.2812 11.1621 92.1484 10.9512 92.0547C10.7402 91.957 10.498 91.9082 10.2246 91.9082C9.86133 91.9082 9.58594 91.957 9.39844 92.0547C9.21484 92.1523 9.02539 92.2852 8.83008 92.4531ZM19.5645 91.5684V92.8691C19.5645 93.5684 19.502 94.1582 19.377 94.6387C19.252 95.1191 19.0723 95.5059 18.8379 95.7988C18.6035 96.0918 18.3203 96.3047 17.9883 96.4375C17.6602 96.5664 17.2891 96.6309 16.875 96.6309C16.5469 96.6309 16.2441 96.5898 15.9668 96.5078C15.6895 96.4258 15.4395 96.2949 15.2168 96.1152C14.998 95.9316 14.8105 95.6934 14.6543 95.4004C14.498 95.1074 14.3789 94.752 14.2969 94.334C14.2148 93.916 14.1738 93.4277 14.1738 92.8691V91.5684C14.1738 90.8691 14.2363 90.2832 14.3613 89.8105C14.4902 89.3379 14.6719 88.959 14.9062 88.6738C15.1406 88.3848 15.4219 88.1777 15.75 88.0527C16.082 87.9277 16.4531 87.8652 16.8633 87.8652C17.1953 87.8652 17.5 87.9062 17.7773 87.9883C18.0586 88.0664 18.3086 88.1934 18.5273 88.3691C18.7461 88.541 18.9316 88.7715 19.084 89.0605C19.2402 89.3457 19.3594 89.6953 19.4414 90.1094C19.5234 90.5234 19.5645 91.0098 19.5645 91.5684ZM18.4746 93.0449V91.3867C18.4746 91.0039 18.4512 90.668 18.4043 90.3789C18.3613 90.0859 18.2969 89.8359 18.2109 89.6289C18.125 89.4219 18.0156 89.2539 17.8828 89.125C17.7539 88.9961 17.6035 88.9023 17.4316 88.8438C17.2637 88.7812 17.0742 88.75 16.8633 88.75C16.6055 88.75 16.377 88.7988 16.1777 88.8965C15.9785 88.9902 15.8105 89.1406 15.6738 89.3477C15.541 89.5547 15.4395 89.8262 15.3691 90.1621C15.2988 90.498 15.2637 90.9062 15.2637 91.3867V93.0449C15.2637 93.4277 15.2852 93.7656 15.3281 94.0586C15.375 94.3516 15.4434 94.6055 15.5332 94.8203C15.623 95.0312 15.7324 95.2051 15.8613 95.3418C15.9902 95.4785 16.1387 95.5801 16.3066 95.6465C16.4785 95.709 16.668 95.7402 16.875 95.7402C17.1406 95.7402 17.373 95.6895 17.5723 95.5879C17.7715 95.4863 17.9375 95.3281 18.0703 95.1133C18.207 94.8945 18.3086 94.6152 18.375 94.2754C18.4414 93.9316 18.4746 93.5215 18.4746 93.0449ZM26.3145 91.5684V92.8691C26.3145 93.5684 26.252 94.1582 26.127 94.6387C26.002 95.1191 25.8223 95.5059 25.5879 95.7988C25.3535 96.0918 25.0703 96.3047 24.7383 96.4375C24.4102 96.5664 24.0391 96.6309 23.625 96.6309C23.2969 96.6309 22.9941 96.5898 22.7168 96.5078C22.4395 96.4258 22.1895 96.2949 21.9668 96.1152C21.748 95.9316 21.5605 95.6934 21.4043 95.4004C21.248 95.1074 21.1289 94.752 21.0469 94.334C20.9648 93.916 20.9238 93.4277 20.9238 92.8691V91.5684C20.9238 90.8691 20.9863 90.2832 21.1113 89.8105C21.2402 89.3379 21.4219 88.959 21.6562 88.6738C21.8906 88.3848 22.1719 88.1777 22.5 88.0527C22.832 87.9277 23.2031 87.8652 23.6133 87.8652C23.9453 87.8652 24.25 87.9062 24.5273 87.9883C24.8086 88.0664 25.0586 88.1934 25.2773 88.3691C25.4961 88.541 25.6816 88.7715 25.834 89.0605C25.9902 89.3457 26.1094 89.6953 26.1914 90.1094C26.2734 90.5234 26.3145 91.0098 26.3145 91.5684ZM25.2246 93.0449V91.3867C25.2246 91.0039 25.2012 90.668 25.1543 90.3789C25.1113 90.0859 25.0469 89.8359 24.9609 89.6289C24.875 89.4219 24.7656 89.2539 24.6328 89.125C24.5039 88.9961 24.3535 88.9023 24.1816 88.8438C24.0137 88.7812 23.8242 88.75 23.6133 88.75C23.3555 88.75 23.127 88.7988 22.9277 88.8965C22.7285 88.9902 22.5605 89.1406 22.4238 89.3477C22.291 89.5547 22.1895 89.8262 22.1191 90.1621C22.0488 90.498 22.0137 90.9062 22.0137 91.3867V93.0449C22.0137 93.4277 22.0352 93.7656 22.0781 94.0586C22.125 94.3516 22.1934 94.6055 22.2832 94.8203C22.373 95.0312 22.4824 95.2051 22.6113 95.3418C22.7402 95.4785 22.8887 95.5801 23.0566 95.6465C23.2285 95.709 23.418 95.7402 23.625 95.7402C23.8906 95.7402 24.123 95.6895 24.3223 95.5879C24.5215 95.4863 24.6875 95.3281 24.8203 95.1133C24.957 94.8945 25.0586 94.6152 25.125 94.2754C25.1914 93.9316 25.2246 93.5215 25.2246 93.0449Z" fill="black" fill-opacity="0.38"/>
<path d="M6.29883 117.352V118.242H0.714844V117.463L3.50977 114.352C3.85352 113.969 4.11914 113.645 4.30664 113.379C4.49805 113.109 4.63086 112.869 4.70508 112.658C4.7832 112.443 4.82227 112.225 4.82227 112.002C4.82227 111.721 4.76367 111.467 4.64648 111.24C4.5332 111.01 4.36523 110.826 4.14258 110.689C3.91992 110.553 3.65039 110.484 3.33398 110.484C2.95508 110.484 2.63867 110.559 2.38477 110.707C2.13477 110.852 1.94727 111.055 1.82227 111.316C1.69727 111.578 1.63477 111.879 1.63477 112.219H0.550781C0.550781 111.738 0.65625 111.299 0.867188 110.9C1.07812 110.502 1.39062 110.186 1.80469 109.951C2.21875 109.713 2.72852 109.594 3.33398 109.594C3.87305 109.594 4.33398 109.689 4.7168 109.881C5.09961 110.068 5.39258 110.334 5.5957 110.678C5.80273 111.018 5.90625 111.416 5.90625 111.873C5.90625 112.123 5.86328 112.377 5.77734 112.635C5.69531 112.889 5.58008 113.143 5.43164 113.396C5.28711 113.65 5.11719 113.9 4.92188 114.146C4.73047 114.393 4.52539 114.635 4.30664 114.873L2.02148 117.352H6.29883ZM12.8145 113.297V114.598C12.8145 115.297 12.752 115.887 12.627 116.367C12.502 116.848 12.3223 117.234 12.0879 117.527C11.8535 117.82 11.5703 118.033 11.2383 118.166C10.9102 118.295 10.5391 118.359 10.125 118.359C9.79688 118.359 9.49414 118.318 9.2168 118.236C8.93945 118.154 8.68945 118.023 8.4668 117.844C8.24805 117.66 8.06055 117.422 7.9043 117.129C7.74805 116.836 7.62891 116.48 7.54688 116.062C7.46484 115.645 7.42383 115.156 7.42383 114.598V113.297C7.42383 112.598 7.48633 112.012 7.61133 111.539C7.74023 111.066 7.92188 110.688 8.15625 110.402C8.39062 110.113 8.67188 109.906 9 109.781C9.33203 109.656 9.70312 109.594 10.1133 109.594C10.4453 109.594 10.75 109.635 11.0273 109.717C11.3086 109.795 11.5586 109.922 11.7773 110.098C11.9961 110.27 12.1816 110.5 12.334 110.789C12.4902 111.074 12.6094 111.424 12.6914 111.838C12.7734 112.252 12.8145 112.738 12.8145 113.297ZM11.7246 114.773V113.115C11.7246 112.732 11.7012 112.396 11.6543 112.107C11.6113 111.814 11.5469 111.564 11.4609 111.357C11.375 111.15 11.2656 110.982 11.1328 110.854C11.0039 110.725 10.8535 110.631 10.6816 110.572C10.5137 110.51 10.3242 110.479 10.1133 110.479C9.85547 110.479 9.62695 110.527 9.42773 110.625C9.22852 110.719 9.06055 110.869 8.92383 111.076C8.79102 111.283 8.68945 111.555 8.61914 111.891C8.54883 112.227 8.51367 112.635 8.51367 113.115V114.773C8.51367 115.156 8.53516 115.494 8.57812 115.787C8.625 116.08 8.69336 116.334 8.7832 116.549C8.87305 116.76 8.98242 116.934 9.11133 117.07C9.24023 117.207 9.38867 117.309 9.55664 117.375C9.72852 117.438 9.91797 117.469 10.125 117.469C10.3906 117.469 10.623 117.418 10.8223 117.316C11.0215 117.215 11.1875 117.057 11.3203 116.842C11.457 116.623 11.5586 116.344 11.625 116.004C11.6914 115.66 11.7246 115.25 11.7246 114.773ZM19.5645 113.297V114.598C19.5645 115.297 19.502 115.887 19.377 116.367C19.252 116.848 19.0723 117.234 18.8379 117.527C18.6035 117.82 18.3203 118.033 17.9883 118.166C17.6602 118.295 17.2891 118.359 16.875 118.359C16.5469 118.359 16.2441 118.318 15.9668 118.236C15.6895 118.154 15.4395 118.023 15.2168 117.844C14.998 117.66 14.8105 117.422 14.6543 117.129C14.498 116.836 14.3789 116.48 14.2969 116.062C14.2148 115.645 14.1738 115.156 14.1738 114.598V113.297C14.1738 112.598 14.2363 112.012 14.3613 111.539C14.4902 111.066 14.6719 110.688 14.9062 110.402C15.1406 110.113 15.4219 109.906 15.75 109.781C16.082 109.656 16.4531 109.594 16.8633 109.594C17.1953 109.594 17.5 109.635 17.7773 109.717C18.0586 109.795 18.3086 109.922 18.5273 110.098C18.7461 110.27 18.9316 110.5 19.084 110.789C19.2402 111.074 19.3594 111.424 19.4414 111.838C19.5234 112.252 19.5645 112.738 19.5645 113.297ZM18.4746 114.773V113.115C18.4746 112.732 18.4512 112.396 18.4043 112.107C18.3613 111.814 18.2969 111.564 18.2109 111.357C18.125 111.15 18.0156 110.982 17.8828 110.854C17.7539 110.725 17.6035 110.631 17.4316 110.572C17.2637 110.51 17.0742 110.479 16.8633 110.479C16.6055 110.479 16.377 110.527 16.1777 110.625C15.9785 110.719 15.8105 110.869 15.6738 111.076C15.541 111.283 15.4395 111.555 15.3691 111.891C15.2988 112.227 15.2637 112.635 15.2637 113.115V114.773C15.2637 115.156 15.2852 115.494 15.3281 115.787C15.375 116.08 15.4434 116.334 15.5332 116.549C15.623 116.76 15.7324 116.934 15.8613 117.07C15.9902 117.207 16.1387 117.309 16.3066 117.375C16.4785 117.438 16.668 117.469 16.875 117.469C17.1406 117.469 17.373 117.418 17.5723 117.316C17.7715 117.215 17.9375 117.057 18.0703 116.842C18.207 116.623 18.3086 116.344 18.375 116.004C18.4414 115.66 18.4746 115.25 18.4746 114.773ZM26.3145 113.297V114.598C26.3145 115.297 26.252 115.887 26.127 116.367C26.002 116.848 25.8223 117.234 25.5879 117.527C25.3535 117.82 25.0703 118.033 24.7383 118.166C24.4102 118.295 24.0391 118.359 23.625 118.359C23.2969 118.359 22.9941 118.318 22.7168 118.236C22.4395 118.154 22.1895 118.023 21.9668 117.844C21.748 117.66 21.5605 117.422 21.4043 117.129C21.248 116.836 21.1289 116.48 21.0469 116.062C20.9648 115.645 20.9238 115.156 20.9238 114.598V113.297C20.9238 112.598 20.9863 112.012 21.1113 111.539C21.2402 111.066 21.4219 110.688 21.6562 110.402C21.8906 110.113 22.1719 109.906 22.5 109.781C22.832 109.656 23.2031 109.594 23.6133 109.594C23.9453 109.594 24.25 109.635 24.5273 109.717C24.8086 109.795 25.0586 109.922 25.2773 110.098C25.4961 110.27 25.6816 110.5 25.834 110.789C25.9902 111.074 26.1094 111.424 26.1914 111.838C26.2734 112.252 26.3145 112.738 26.3145 113.297ZM25.2246 114.773V113.115C25.2246 112.732 25.2012 112.396 25.1543 112.107C25.1113 111.814 25.0469 111.564 24.9609 111.357C24.875 111.15 24.7656 110.982 24.6328 110.854C24.5039 110.725 24.3535 110.631 24.1816 110.572C24.0137 110.51 23.8242 110.479 23.6133 110.479C23.3555 110.479 23.127 110.527 22.9277 110.625C22.7285 110.719 22.5605 110.869 22.4238 111.076C22.291 111.283 22.1895 111.555 22.1191 111.891C22.0488 112.227 22.0137 112.635 22.0137 113.115V114.773C22.0137 115.156 22.0352 115.494 22.0781 115.787C22.125 116.08 22.1934 116.334 22.2832 116.549C22.373 116.76 22.4824 116.934 22.6113 117.07C22.7402 117.207 22.8887 117.309 23.0566 117.375C23.2285 117.438 23.418 117.469 23.625 117.469C23.8906 117.469 24.123 117.418 24.3223 117.316C24.5215 117.215 24.6875 117.057 24.8203 116.842C24.957 116.623 25.0586 116.344 25.125 116.004C25.1914 115.66 25.2246 115.25 25.2246 114.773Z" fill="black" fill-opacity="0.38"/>
<path d="M4.27148 131.394V139.972H3.1875V132.747L1.00195 133.544V132.565L4.10156 131.394H4.27148ZM8.83008 135.911L7.96289 135.688L8.39062 131.44H12.7676V132.442H9.31055L9.05273 134.763C9.20898 134.673 9.40625 134.589 9.64453 134.511C9.88672 134.433 10.1641 134.394 10.4766 134.394C10.8711 134.394 11.2246 134.462 11.5371 134.599C11.8496 134.731 12.1152 134.923 12.334 135.173C12.5566 135.423 12.7266 135.724 12.8438 136.075C12.9609 136.427 13.0195 136.819 13.0195 137.253C13.0195 137.663 12.9629 138.04 12.8496 138.384C12.7402 138.728 12.5742 139.028 12.3516 139.286C12.1289 139.54 11.8477 139.737 11.5078 139.878C11.1719 140.019 10.7754 140.089 10.3184 140.089C9.97461 140.089 9.64844 140.042 9.33984 139.948C9.03516 139.851 8.76172 139.704 8.51953 139.509C8.28125 139.31 8.08594 139.063 7.93359 138.771C7.78516 138.474 7.69141 138.126 7.65234 137.728H8.68359C8.73047 138.048 8.82422 138.317 8.96484 138.536C9.10547 138.755 9.28906 138.921 9.51562 139.034C9.74609 139.144 10.0137 139.198 10.3184 139.198C10.5762 139.198 10.8047 139.153 11.0039 139.063C11.2031 138.974 11.3711 138.845 11.5078 138.677C11.6445 138.509 11.748 138.306 11.8184 138.067C11.8926 137.829 11.9297 137.562 11.9297 137.265C11.9297 136.995 11.8926 136.745 11.8184 136.515C11.7441 136.284 11.6328 136.083 11.4844 135.911C11.3398 135.739 11.1621 135.606 10.9512 135.513C10.7402 135.415 10.498 135.366 10.2246 135.366C9.86133 135.366 9.58594 135.415 9.39844 135.513C9.21484 135.61 9.02539 135.743 8.83008 135.911ZM19.5645 135.026V136.327C19.5645 137.026 19.502 137.616 19.377 138.097C19.252 138.577 19.0723 138.964 18.8379 139.257C18.6035 139.55 18.3203 139.763 17.9883 139.896C17.6602 140.024 17.2891 140.089 16.875 140.089C16.5469 140.089 16.2441 140.048 15.9668 139.966C15.6895 139.884 15.4395 139.753 15.2168 139.573C14.998 139.39 14.8105 139.151 14.6543 138.858C14.498 138.565 14.3789 138.21 14.2969 137.792C14.2148 137.374 14.1738 136.886 14.1738 136.327V135.026C14.1738 134.327 14.2363 133.741 14.3613 133.269C14.4902 132.796 14.6719 132.417 14.9062 132.132C15.1406 131.843 15.4219 131.636 15.75 131.511C16.082 131.386 16.4531 131.323 16.8633 131.323C17.1953 131.323 17.5 131.364 17.7773 131.446C18.0586 131.524 18.3086 131.651 18.5273 131.827C18.7461 131.999 18.9316 132.229 19.084 132.519C19.2402 132.804 19.3594 133.153 19.4414 133.567C19.5234 133.981 19.5645 134.468 19.5645 135.026ZM18.4746 136.503V134.845C18.4746 134.462 18.4512 134.126 18.4043 133.837C18.3613 133.544 18.2969 133.294 18.2109 133.087C18.125 132.88 18.0156 132.712 17.8828 132.583C17.7539 132.454 17.6035 132.36 17.4316 132.302C17.2637 132.239 17.0742 132.208 16.8633 132.208C16.6055 132.208 16.377 132.257 16.1777 132.354C15.9785 132.448 15.8105 132.599 15.6738 132.806C15.541 133.013 15.4395 133.284 15.3691 133.62C15.2988 133.956 15.2637 134.364 15.2637 134.845V136.503C15.2637 136.886 15.2852 137.224 15.3281 137.517C15.375 137.81 15.4434 138.063 15.5332 138.278C15.623 138.489 15.7324 138.663 15.8613 138.8C15.9902 138.937 16.1387 139.038 16.3066 139.104C16.4785 139.167 16.668 139.198 16.875 139.198C17.1406 139.198 17.373 139.147 17.5723 139.046C17.7715 138.944 17.9375 138.786 18.0703 138.571C18.207 138.353 18.3086 138.073 18.375 137.733C18.4414 137.39 18.4746 136.979 18.4746 136.503ZM26.3145 135.026V136.327C26.3145 137.026 26.252 137.616 26.127 138.097C26.002 138.577 25.8223 138.964 25.5879 139.257C25.3535 139.55 25.0703 139.763 24.7383 139.896C24.4102 140.024 24.0391 140.089 23.625 140.089C23.2969 140.089 22.9941 140.048 22.7168 139.966C22.4395 139.884 22.1895 139.753 21.9668 139.573C21.748 139.39 21.5605 139.151 21.4043 138.858C21.248 138.565 21.1289 138.21 21.0469 137.792C20.9648 137.374 20.9238 136.886 20.9238 136.327V135.026C20.9238 134.327 20.9863 133.741 21.1113 133.269C21.2402 132.796 21.4219 132.417 21.6562 132.132C21.8906 131.843 22.1719 131.636 22.5 131.511C22.832 131.386 23.2031 131.323 23.6133 131.323C23.9453 131.323 24.25 131.364 24.5273 131.446C24.8086 131.524 25.0586 131.651 25.2773 131.827C25.4961 131.999 25.6816 132.229 25.834 132.519C25.9902 132.804 26.1094 133.153 26.1914 133.567C26.2734 133.981 26.3145 134.468 26.3145 135.026ZM25.2246 136.503V134.845C25.2246 134.462 25.2012 134.126 25.1543 133.837C25.1113 133.544 25.0469 133.294 24.9609 133.087C24.875 132.88 24.7656 132.712 24.6328 132.583C24.5039 132.454 24.3535 132.36 24.1816 132.302C24.0137 132.239 23.8242 132.208 23.6133 132.208C23.3555 132.208 23.127 132.257 22.9277 132.354C22.7285 132.448 22.5605 132.599 22.4238 132.806C22.291 133.013 22.1895 133.284 22.1191 133.62C22.0488 133.956 22.0137 134.364 22.0137 134.845V136.503C22.0137 136.886 22.0352 137.224 22.0781 137.517C22.125 137.81 22.1934 138.063 22.2832 138.278C22.373 138.489 22.4824 138.663 22.6113 138.8C22.7402 138.937 22.8887 139.038 23.0566 139.104C23.2285 139.167 23.418 139.198 23.625 139.198C23.8906 139.198 24.123 139.147 24.3223 139.046C24.5215 138.944 24.6875 138.786 24.8203 138.571C24.957 138.353 25.0586 138.073 25.125 137.733C25.1914 137.39 25.2246 136.979 25.2246 136.503Z" fill="black" fill-opacity="0.38"/>
<path d="M4.27148 153.122V161.7H3.1875V154.476L1.00195 155.272V154.294L4.10156 153.122H4.27148ZM12.8145 156.755V158.056C12.8145 158.755 12.752 159.345 12.627 159.825C12.502 160.306 12.3223 160.692 12.0879 160.985C11.8535 161.278 11.5703 161.491 11.2383 161.624C10.9102 161.753 10.5391 161.817 10.125 161.817C9.79688 161.817 9.49414 161.776 9.2168 161.694C8.93945 161.612 8.68945 161.481 8.4668 161.302C8.24805 161.118 8.06055 160.88 7.9043 160.587C7.74805 160.294 7.62891 159.938 7.54688 159.521C7.46484 159.103 7.42383 158.614 7.42383 158.056V156.755C7.42383 156.056 7.48633 155.47 7.61133 154.997C7.74023 154.524 7.92188 154.146 8.15625 153.86C8.39062 153.571 8.67188 153.364 9 153.239C9.33203 153.114 9.70312 153.052 10.1133 153.052C10.4453 153.052 10.75 153.093 11.0273 153.175C11.3086 153.253 11.5586 153.38 11.7773 153.556C11.9961 153.728 12.1816 153.958 12.334 154.247C12.4902 154.532 12.6094 154.882 12.6914 155.296C12.7734 155.71 12.8145 156.196 12.8145 156.755ZM11.7246 158.231V156.573C11.7246 156.19 11.7012 155.854 11.6543 155.565C11.6113 155.272 11.5469 155.022 11.4609 154.815C11.375 154.608 11.2656 154.44 11.1328 154.312C11.0039 154.183 10.8535 154.089 10.6816 154.03C10.5137 153.968 10.3242 153.937 10.1133 153.937C9.85547 153.937 9.62695 153.985 9.42773 154.083C9.22852 154.177 9.06055 154.327 8.92383 154.534C8.79102 154.741 8.68945 155.013 8.61914 155.349C8.54883 155.685 8.51367 156.093 8.51367 156.573V158.231C8.51367 158.614 8.53516 158.952 8.57812 159.245C8.625 159.538 8.69336 159.792 8.7832 160.007C8.87305 160.218 8.98242 160.392 9.11133 160.528C9.24023 160.665 9.38867 160.767 9.55664 160.833C9.72852 160.896 9.91797 160.927 10.125 160.927C10.3906 160.927 10.623 160.876 10.8223 160.774C11.0215 160.673 11.1875 160.515 11.3203 160.3C11.457 160.081 11.5586 159.802 11.625 159.462C11.6914 159.118 11.7246 158.708 11.7246 158.231ZM19.5645 156.755V158.056C19.5645 158.755 19.502 159.345 19.377 159.825C19.252 160.306 19.0723 160.692 18.8379 160.985C18.6035 161.278 18.3203 161.491 17.9883 161.624C17.6602 161.753 17.2891 161.817 16.875 161.817C16.5469 161.817 16.2441 161.776 15.9668 161.694C15.6895 161.612 15.4395 161.481 15.2168 161.302C14.998 161.118 14.8105 160.88 14.6543 160.587C14.498 160.294 14.3789 159.938 14.2969 159.521C14.2148 159.103 14.1738 158.614 14.1738 158.056V156.755C14.1738 156.056 14.2363 155.47 14.3613 154.997C14.4902 154.524 14.6719 154.146 14.9062 153.86C15.1406 153.571 15.4219 153.364 15.75 153.239C16.082 153.114 16.4531 153.052 16.8633 153.052C17.1953 153.052 17.5 153.093 17.7773 153.175C18.0586 153.253 18.3086 153.38 18.5273 153.556C18.7461 153.728 18.9316 153.958 19.084 154.247C19.2402 154.532 19.3594 154.882 19.4414 155.296C19.5234 155.71 19.5645 156.196 19.5645 156.755ZM18.4746 158.231V156.573C18.4746 156.19 18.4512 155.854 18.4043 155.565C18.3613 155.272 18.2969 155.022 18.2109 154.815C18.125 154.608 18.0156 154.44 17.8828 154.312C17.7539 154.183 17.6035 154.089 17.4316 154.03C17.2637 153.968 17.0742 153.937 16.8633 153.937C16.6055 153.937 16.377 153.985 16.1777 154.083C15.9785 154.177 15.8105 154.327 15.6738 154.534C15.541 154.741 15.4395 155.013 15.3691 155.349C15.2988 155.685 15.2637 156.093 15.2637 156.573V158.231C15.2637 158.614 15.2852 158.952 15.3281 159.245C15.375 159.538 15.4434 159.792 15.5332 160.007C15.623 160.218 15.7324 160.392 15.8613 160.528C15.9902 160.665 16.1387 160.767 16.3066 160.833C16.4785 160.896 16.668 160.927 16.875 160.927C17.1406 160.927 17.373 160.876 17.5723 160.774C17.7715 160.673 17.9375 160.515 18.0703 160.3C18.207 160.081 18.3086 159.802 18.375 159.462C18.4414 159.118 18.4746 158.708 18.4746 158.231ZM26.3145 156.755V158.056C26.3145 158.755 26.252 159.345 26.127 159.825C26.002 160.306 25.8223 160.692 25.5879 160.985C25.3535 161.278 25.0703 161.491 24.7383 161.624C24.4102 161.753 24.0391 161.817 23.625 161.817C23.2969 161.817 22.9941 161.776 22.7168 161.694C22.4395 161.612 22.1895 161.481 21.9668 161.302C21.748 161.118 21.5605 160.88 21.4043 160.587C21.248 160.294 21.1289 159.938 21.0469 159.521C20.9648 159.103 20.9238 158.614 20.9238 158.056V156.755C20.9238 156.056 20.9863 155.47 21.1113 154.997C21.2402 154.524 21.4219 154.146 21.6562 153.86C21.8906 153.571 22.1719 153.364 22.5 153.239C22.832 153.114 23.2031 153.052 23.6133 153.052C23.9453 153.052 24.25 153.093 24.5273 153.175C24.8086 153.253 25.0586 153.38 25.2773 153.556C25.4961 153.728 25.6816 153.958 25.834 154.247C25.9902 154.532 26.1094 154.882 26.1914 155.296C26.2734 155.71 26.3145 156.196 26.3145 156.755ZM25.2246 158.231V156.573C25.2246 156.19 25.2012 155.854 25.1543 155.565C25.1113 155.272 25.0469 155.022 24.9609 154.815C24.875 154.608 24.7656 154.44 24.6328 154.312C24.5039 154.183 24.3535 154.089 24.1816 154.03C24.0137 153.968 23.8242 153.937 23.6133 153.937C23.3555 153.937 23.127 153.985 22.9277 154.083C22.7285 154.177 22.5605 154.327 22.4238 154.534C22.291 154.741 22.1895 155.013 22.1191 155.349C22.0488 155.685 22.0137 156.093 22.0137 156.573V158.231C22.0137 158.614 22.0352 158.952 22.0781 159.245C22.125 159.538 22.1934 159.792 22.2832 160.007C22.373 160.218 22.4824 160.392 22.6113 160.528C22.7402 160.665 22.8887 160.767 23.0566 160.833C23.2285 160.896 23.418 160.927 23.625 160.927C23.8906 160.927 24.123 160.876 24.3223 160.774C24.5215 160.673 24.6875 160.515 24.8203 160.3C24.957 160.081 25.0586 159.802 25.125 159.462C25.1914 159.118 25.2246 158.708 25.2246 158.231Z" fill="black" fill-opacity="0.38"/>
<path d="M12.9727 174.898V175.508L9.43945 183.43H8.29688L11.8242 175.789H7.20703V174.898H12.9727ZM15.5801 179.369L14.7129 179.146L15.1406 174.898H19.5176V175.9H16.0605L15.8027 178.221C15.959 178.131 16.1562 178.047 16.3945 177.969C16.6367 177.891 16.9141 177.852 17.2266 177.852C17.6211 177.852 17.9746 177.92 18.2871 178.057C18.5996 178.189 18.8652 178.381 19.084 178.631C19.3066 178.881 19.4766 179.182 19.5938 179.533C19.7109 179.885 19.7695 180.277 19.7695 180.711C19.7695 181.121 19.7129 181.498 19.5996 181.842C19.4902 182.186 19.3242 182.486 19.1016 182.744C18.8789 182.998 18.5977 183.195 18.2578 183.336C17.9219 183.477 17.5254 183.547 17.0684 183.547C16.7246 183.547 16.3984 183.5 16.0898 183.406C15.7852 183.309 15.5117 183.162 15.2695 182.967C15.0312 182.768 14.8359 182.521 14.6836 182.229C14.5352 181.932 14.4414 181.584 14.4023 181.186H15.4336C15.4805 181.506 15.5742 181.775 15.7148 181.994C15.8555 182.213 16.0391 182.379 16.2656 182.492C16.4961 182.602 16.7637 182.656 17.0684 182.656C17.3262 182.656 17.5547 182.611 17.7539 182.521C17.9531 182.432 18.1211 182.303 18.2578 182.135C18.3945 181.967 18.498 181.764 18.5684 181.525C18.6426 181.287 18.6797 181.02 18.6797 180.723C18.6797 180.453 18.6426 180.203 18.5684 179.973C18.4941 179.742 18.3828 179.541 18.2344 179.369C18.0898 179.197 17.9121 179.064 17.7012 178.971C17.4902 178.873 17.248 178.824 16.9746 178.824C16.6113 178.824 16.3359 178.873 16.1484 178.971C15.9648 179.068 15.7754 179.201 15.5801 179.369ZM26.3145 178.484V179.785C26.3145 180.484 26.252 181.074 26.127 181.555C26.002 182.035 25.8223 182.422 25.5879 182.715C25.3535 183.008 25.0703 183.221 24.7383 183.354C24.4102 183.482 24.0391 183.547 23.625 183.547C23.2969 183.547 22.9941 183.506 22.7168 183.424C22.4395 183.342 22.1895 183.211 21.9668 183.031C21.748 182.848 21.5605 182.609 21.4043 182.316C21.248 182.023 21.1289 181.668 21.0469 181.25C20.9648 180.832 20.9238 180.344 20.9238 179.785V178.484C20.9238 177.785 20.9863 177.199 21.1113 176.727C21.2402 176.254 21.4219 175.875 21.6562 175.59C21.8906 175.301 22.1719 175.094 22.5 174.969C22.832 174.844 23.2031 174.781 23.6133 174.781C23.9453 174.781 24.25 174.822 24.5273 174.904C24.8086 174.982 25.0586 175.109 25.2773 175.285C25.4961 175.457 25.6816 175.688 25.834 175.977C25.9902 176.262 26.1094 176.611 26.1914 177.025C26.2734 177.439 26.3145 177.926 26.3145 178.484ZM25.2246 179.961V178.303C25.2246 177.92 25.2012 177.584 25.1543 177.295C25.1113 177.002 25.0469 176.752 24.9609 176.545C24.875 176.338 24.7656 176.17 24.6328 176.041C24.5039 175.912 24.3535 175.818 24.1816 175.76C24.0137 175.697 23.8242 175.666 23.6133 175.666C23.3555 175.666 23.127 175.715 22.9277 175.812C22.7285 175.906 22.5605 176.057 22.4238 176.264C22.291 176.471 22.1895 176.742 22.1191 177.078C22.0488 177.414 22.0137 177.822 22.0137 178.303V179.961C22.0137 180.344 22.0352 180.682 22.0781 180.975C22.125 181.268 22.1934 181.521 22.2832 181.736C22.373 181.947 22.4824 182.121 22.6113 182.258C22.7402 182.395 22.8887 182.496 23.0566 182.562C23.2285 182.625 23.418 182.656 23.625 182.656C23.8906 182.656 24.123 182.605 24.3223 182.504C24.5215 182.402 24.6875 182.244 24.8203 182.029C24.957 181.811 25.0586 181.531 25.125 181.191C25.1914 180.848 25.2246 180.438 25.2246 179.961Z" fill="black" fill-opacity="0.38"/>
<path d="M8.83008 201.098L7.96289 200.875L8.39062 196.627H12.7676V197.629H9.31055L9.05273 199.949C9.20898 199.859 9.40625 199.775 9.64453 199.697C9.88672 199.619 10.1641 199.58 10.4766 199.58C10.8711 199.58 11.2246 199.648 11.5371 199.785C11.8496 199.918 12.1152 200.109 12.334 200.359C12.5566 200.609 12.7266 200.91 12.8438 201.262C12.9609 201.613 13.0195 202.006 13.0195 202.439C13.0195 202.85 12.9629 203.227 12.8496 203.57C12.7402 203.914 12.5742 204.215 12.3516 204.473C12.1289 204.727 11.8477 204.924 11.5078 205.064C11.1719 205.205 10.7754 205.275 10.3184 205.275C9.97461 205.275 9.64844 205.229 9.33984 205.135C9.03516 205.037 8.76172 204.891 8.51953 204.695C8.28125 204.496 8.08594 204.25 7.93359 203.957C7.78516 203.66 7.69141 203.312 7.65234 202.914H8.68359C8.73047 203.234 8.82422 203.504 8.96484 203.723C9.10547 203.941 9.28906 204.107 9.51562 204.221C9.74609 204.33 10.0137 204.385 10.3184 204.385C10.5762 204.385 10.8047 204.34 11.0039 204.25C11.2031 204.16 11.3711 204.031 11.5078 203.863C11.6445 203.695 11.748 203.492 11.8184 203.254C11.8926 203.016 11.9297 202.748 11.9297 202.451C11.9297 202.182 11.8926 201.932 11.8184 201.701C11.7441 201.471 11.6328 201.27 11.4844 201.098C11.3398 200.926 11.1621 200.793 10.9512 200.699C10.7402 200.602 10.498 200.553 10.2246 200.553C9.86133 200.553 9.58594 200.602 9.39844 200.699C9.21484 200.797 9.02539 200.93 8.83008 201.098ZM19.5645 200.213V201.514C19.5645 202.213 19.502 202.803 19.377 203.283C19.252 203.764 19.0723 204.15 18.8379 204.443C18.6035 204.736 18.3203 204.949 17.9883 205.082C17.6602 205.211 17.2891 205.275 16.875 205.275C16.5469 205.275 16.2441 205.234 15.9668 205.152C15.6895 205.07 15.4395 204.939 15.2168 204.76C14.998 204.576 14.8105 204.338 14.6543 204.045C14.498 203.752 14.3789 203.396 14.2969 202.979C14.2148 202.561 14.1738 202.072 14.1738 201.514V200.213C14.1738 199.514 14.2363 198.928 14.3613 198.455C14.4902 197.982 14.6719 197.604 14.9062 197.318C15.1406 197.029 15.4219 196.822 15.75 196.697C16.082 196.572 16.4531 196.51 16.8633 196.51C17.1953 196.51 17.5 196.551 17.7773 196.633C18.0586 196.711 18.3086 196.838 18.5273 197.014C18.7461 197.186 18.9316 197.416 19.084 197.705C19.2402 197.99 19.3594 198.34 19.4414 198.754C19.5234 199.168 19.5645 199.654 19.5645 200.213ZM18.4746 201.689V200.031C18.4746 199.648 18.4512 199.312 18.4043 199.023C18.3613 198.73 18.2969 198.48 18.2109 198.273C18.125 198.066 18.0156 197.898 17.8828 197.77C17.7539 197.641 17.6035 197.547 17.4316 197.488C17.2637 197.426 17.0742 197.395 16.8633 197.395C16.6055 197.395 16.377 197.443 16.1777 197.541C15.9785 197.635 15.8105 197.785 15.6738 197.992C15.541 198.199 15.4395 198.471 15.3691 198.807C15.2988 199.143 15.2637 199.551 15.2637 200.031V201.689C15.2637 202.072 15.2852 202.41 15.3281 202.703C15.375 202.996 15.4434 203.25 15.5332 203.465C15.623 203.676 15.7324 203.85 15.8613 203.986C15.9902 204.123 16.1387 204.225 16.3066 204.291C16.4785 204.354 16.668 204.385 16.875 204.385C17.1406 204.385 17.373 204.334 17.5723 204.232C17.7715 204.131 17.9375 203.973 18.0703 203.758C18.207 203.539 18.3086 203.26 18.375 202.92C18.4414 202.576 18.4746 202.166 18.4746 201.689ZM26.3145 200.213V201.514C26.3145 202.213 26.252 202.803 26.127 203.283C26.002 203.764 25.8223 204.15 25.5879 204.443C25.3535 204.736 25.0703 204.949 24.7383 205.082C24.4102 205.211 24.0391 205.275 23.625 205.275C23.2969 205.275 22.9941 205.234 22.7168 205.152C22.4395 205.07 22.1895 204.939 21.9668 204.76C21.748 204.576 21.5605 204.338 21.4043 204.045C21.248 203.752 21.1289 203.396 21.0469 202.979C20.9648 202.561 20.9238 202.072 20.9238 201.514V200.213C20.9238 199.514 20.9863 198.928 21.1113 198.455C21.2402 197.982 21.4219 197.604 21.6562 197.318C21.8906 197.029 22.1719 196.822 22.5 196.697C22.832 196.572 23.2031 196.51 23.6133 196.51C23.9453 196.51 24.25 196.551 24.5273 196.633C24.8086 196.711 25.0586 196.838 25.2773 197.014C25.4961 197.186 25.6816 197.416 25.834 197.705C25.9902 197.99 26.1094 198.34 26.1914 198.754C26.2734 199.168 26.3145 199.654 26.3145 200.213ZM25.2246 201.689V200.031C25.2246 199.648 25.2012 199.312 25.1543 199.023C25.1113 198.73 25.0469 198.48 24.9609 198.273C24.875 198.066 24.7656 197.898 24.6328 197.77C24.5039 197.641 24.3535 197.547 24.1816 197.488C24.0137 197.426 23.8242 197.395 23.6133 197.395C23.3555 197.395 23.127 197.443 22.9277 197.541C22.7285 197.635 22.5605 197.785 22.4238 197.992C22.291 198.199 22.1895 198.471 22.1191 198.807C22.0488 199.143 22.0137 199.551 22.0137 200.031V201.689C22.0137 202.072 22.0352 202.41 22.0781 202.703C22.125 202.996 22.1934 203.25 22.2832 203.465C22.373 203.676 22.4824 203.85 22.6113 203.986C22.7402 204.123 22.8887 204.225 23.0566 204.291C23.2285 204.354 23.418 204.385 23.625 204.385C23.8906 204.385 24.123 204.334 24.3223 204.232C24.5215 204.131 24.6875 203.973 24.8203 203.758C24.957 203.539 25.0586 203.26 25.125 202.92C25.1914 202.576 25.2246 202.166 25.2246 201.689Z" fill="black" fill-opacity="0.38"/>
<path d="M13.0488 225.996V226.887H7.46484V226.107L10.2598 222.996C10.6035 222.613 10.8691 222.289 11.0566 222.023C11.248 221.754 11.3809 221.514 11.4551 221.303C11.5332 221.088 11.5723 220.869 11.5723 220.646C11.5723 220.365 11.5137 220.111 11.3965 219.885C11.2832 219.654 11.1152 219.471 10.8926 219.334C10.6699 219.197 10.4004 219.129 10.084 219.129C9.70508 219.129 9.38867 219.203 9.13477 219.352C8.88477 219.496 8.69727 219.699 8.57227 219.961C8.44727 220.223 8.38477 220.523 8.38477 220.863H7.30078C7.30078 220.383 7.40625 219.943 7.61719 219.545C7.82812 219.146 8.14062 218.83 8.55469 218.596C8.96875 218.357 9.47852 218.238 10.084 218.238C10.623 218.238 11.084 218.334 11.4668 218.525C11.8496 218.713 12.1426 218.979 12.3457 219.322C12.5527 219.662 12.6562 220.061 12.6562 220.518C12.6562 220.768 12.6133 221.021 12.5273 221.279C12.4453 221.533 12.3301 221.787 12.1816 222.041C12.0371 222.295 11.8672 222.545 11.6719 222.791C11.4805 223.037 11.2754 223.279 11.0566 223.518L8.77148 225.996H13.0488ZM15.5801 222.826L14.7129 222.604L15.1406 218.355H19.5176V219.357H16.0605L15.8027 221.678C15.959 221.588 16.1562 221.504 16.3945 221.426C16.6367 221.348 16.9141 221.309 17.2266 221.309C17.6211 221.309 17.9746 221.377 18.2871 221.514C18.5996 221.646 18.8652 221.838 19.084 222.088C19.3066 222.338 19.4766 222.639 19.5938 222.99C19.7109 223.342 19.7695 223.734 19.7695 224.168C19.7695 224.578 19.7129 224.955 19.5996 225.299C19.4902 225.643 19.3242 225.943 19.1016 226.201C18.8789 226.455 18.5977 226.652 18.2578 226.793C17.9219 226.934 17.5254 227.004 17.0684 227.004C16.7246 227.004 16.3984 226.957 16.0898 226.863C15.7852 226.766 15.5117 226.619 15.2695 226.424C15.0312 226.225 14.8359 225.979 14.6836 225.686C14.5352 225.389 14.4414 225.041 14.4023 224.643H15.4336C15.4805 224.963 15.5742 225.232 15.7148 225.451C15.8555 225.67 16.0391 225.836 16.2656 225.949C16.4961 226.059 16.7637 226.113 17.0684 226.113C17.3262 226.113 17.5547 226.068 17.7539 225.979C17.9531 225.889 18.1211 225.76 18.2578 225.592C18.3945 225.424 18.498 225.221 18.5684 224.982C18.6426 224.744 18.6797 224.477 18.6797 224.18C18.6797 223.91 18.6426 223.66 18.5684 223.43C18.4941 223.199 18.3828 222.998 18.2344 222.826C18.0898 222.654 17.9121 222.521 17.7012 222.428C17.4902 222.33 17.248 222.281 16.9746 222.281C16.6113 222.281 16.3359 222.33 16.1484 222.428C15.9648 222.525 15.7754 222.658 15.5801 222.826ZM26.3145 221.941V223.242C26.3145 223.941 26.252 224.531 26.127 225.012C26.002 225.492 25.8223 225.879 25.5879 226.172C25.3535 226.465 25.0703 226.678 24.7383 226.811C24.4102 226.939 24.0391 227.004 23.625 227.004C23.2969 227.004 22.9941 226.963 22.7168 226.881C22.4395 226.799 22.1895 226.668 21.9668 226.488C21.748 226.305 21.5605 226.066 21.4043 225.773C21.248 225.48 21.1289 225.125 21.0469 224.707C20.9648 224.289 20.9238 223.801 20.9238 223.242V221.941C20.9238 221.242 20.9863 220.656 21.1113 220.184C21.2402 219.711 21.4219 219.332 21.6562 219.047C21.8906 218.758 22.1719 218.551 22.5 218.426C22.832 218.301 23.2031 218.238 23.6133 218.238C23.9453 218.238 24.25 218.279 24.5273 218.361C24.8086 218.439 25.0586 218.566 25.2773 218.742C25.4961 218.914 25.6816 219.145 25.834 219.434C25.9902 219.719 26.1094 220.068 26.1914 220.482C26.2734 220.896 26.3145 221.383 26.3145 221.941ZM25.2246 223.418V221.76C25.2246 221.377 25.2012 221.041 25.1543 220.752C25.1113 220.459 25.0469 220.209 24.9609 220.002C24.875 219.795 24.7656 219.627 24.6328 219.498C24.5039 219.369 24.3535 219.275 24.1816 219.217C24.0137 219.154 23.8242 219.123 23.6133 219.123C23.3555 219.123 23.127 219.172 22.9277 219.27C22.7285 219.363 22.5605 219.514 22.4238 219.721C22.291 219.928 22.1895 220.199 22.1191 220.535C22.0488 220.871 22.0137 221.279 22.0137 221.76V223.418C22.0137 223.801 22.0352 224.139 22.0781 224.432C22.125 224.725 22.1934 224.979 22.2832 225.193C22.373 225.404 22.4824 225.578 22.6113 225.715C22.7402 225.852 22.8887 225.953 23.0566 226.02C23.2285 226.082 23.418 226.113 23.625 226.113C23.8906 226.113 24.123 226.062 24.3223 225.961C24.5215 225.859 24.6875 225.701 24.8203 225.486C24.957 225.268 25.0586 224.988 25.125 224.648C25.1914 224.305 25.2246 223.895 25.2246 223.418Z" fill="black" fill-opacity="0.38"/>
<path d="M26.3145 243.672V244.973C26.3145 245.672 26.252 246.262 26.127 246.742C26.002 247.223 25.8223 247.609 25.5879 247.902C25.3535 248.195 25.0703 248.408 24.7383 248.541C24.4102 248.67 24.0391 248.734 23.625 248.734C23.2969 248.734 22.9941 248.693 22.7168 248.611C22.4395 248.529 22.1895 248.398 21.9668 248.219C21.748 248.035 21.5605 247.797 21.4043 247.504C21.248 247.211 21.1289 246.855 21.0469 246.438C20.9648 246.02 20.9238 245.531 20.9238 244.973V243.672C20.9238 242.973 20.9863 242.387 21.1113 241.914C21.2402 241.441 21.4219 241.062 21.6562 240.777C21.8906 240.488 22.1719 240.281 22.5 240.156C22.832 240.031 23.2031 239.969 23.6133 239.969C23.9453 239.969 24.25 240.01 24.5273 240.092C24.8086 240.17 25.0586 240.297 25.2773 240.473C25.4961 240.645 25.6816 240.875 25.834 241.164C25.9902 241.449 26.1094 241.799 26.1914 242.213C26.2734 242.627 26.3145 243.113 26.3145 243.672ZM25.2246 245.148V243.49C25.2246 243.107 25.2012 242.771 25.1543 242.482C25.1113 242.189 25.0469 241.939 24.9609 241.732C24.875 241.525 24.7656 241.357 24.6328 241.229C24.5039 241.1 24.3535 241.006 24.1816 240.947C24.0137 240.885 23.8242 240.854 23.6133 240.854C23.3555 240.854 23.127 240.902 22.9277 241C22.7285 241.094 22.5605 241.244 22.4238 241.451C22.291 241.658 22.1895 241.93 22.1191 242.266C22.0488 242.602 22.0137 243.01 22.0137 243.49V245.148C22.0137 245.531 22.0352 245.869 22.0781 246.162C22.125 246.455 22.1934 246.709 22.2832 246.924C22.373 247.135 22.4824 247.309 22.6113 247.445C22.7402 247.582 22.8887 247.684 23.0566 247.75C23.2285 247.812 23.418 247.844 23.625 247.844C23.8906 247.844 24.123 247.793 24.3223 247.691C24.5215 247.59 24.6875 247.432 24.8203 247.217C24.957 246.998 25.0586 246.719 25.125 246.379C25.1914 246.035 25.2246 245.625 25.2246 245.148Z" fill="black" fill-opacity="0.38"/>
</svg>
