<svg width="20" height="19" viewBox="0 0 20 19" fill="none" xmlns="http://www.w3.org/2000/svg">
<g id="Group">
<path id="Vector" d="M13.4224 8.76172H10.9224V6.29297C10.9224 5.91797 10.6099 5.60547 10.2036 5.60547C9.82861 5.60547 9.51611 5.91797 9.51611 6.32422V8.79297H7.04736C6.67236 8.79297 6.35986 9.10547 6.35986 9.51172C6.35986 9.88672 6.67236 10.1992 7.07861 10.1992H9.54736V12.668C9.54736 13.043 9.85986 13.3555 10.2661 13.3555C10.6411 13.3555 10.9536 13.043 10.9536 12.6367V10.168H13.4224C13.7974 10.168 14.1099 9.85547 14.1099 9.44922C14.1099 9.07422 13.7974 8.76172 13.4224 8.76172Z" fill="white"/>
<path id="Vector_2" d="M10.2349 0.0429688C5.01611 0.0429688 0.797363 4.26172 0.797363 9.48047C0.797363 14.6992 5.04736 18.9492 10.2661 18.9492C15.4849 18.9492 19.7349 14.6992 19.7349 9.48047C19.7036 4.26172 15.4536 0.0429688 10.2349 0.0429688ZM10.2349 17.543C5.79736 17.543 2.20361 13.918 2.20361 9.48047C2.20361 5.04297 5.79736 1.44922 10.2349 1.44922C14.6724 1.44922 18.2974 5.04297 18.2974 9.48047C18.2974 13.918 14.6724 17.543 10.2349 17.543Z" fill="white"/>
</g>
</svg>
