<svg width="20" height="21" viewBox="0 0 20 21" fill="none" xmlns="http://www.w3.org/2000/svg">
<g clip-path="url(#clip0_660_1125)">
<path d="M13.1875 9.14258H11.1875V7.17383C11.1875 6.50829 10.6365 5.98633 9.96875 5.98633C9.30322 5.98633 8.78125 6.5373 8.78125 7.20508V9.17383H6.8125C6.14697 9.17383 5.625 9.7248 5.625 10.3926C5.625 11.0581 6.17597 11.5801 6.84375 11.5801H8.8125V13.5488C8.8125 14.2144 9.36347 14.7363 10.0312 14.7363C10.6968 14.7363 11.2187 14.1854 11.2187 13.5176V11.5488H13.1875C13.853 11.5488 14.375 10.9979 14.375 10.3301C14.375 9.67893 13.8386 9.14258 13.1875 9.14258Z" fill="white" stroke="white"/>
<path d="M20 10.3613L20 10.3583C19.9671 4.86421 15.4933 0.423828 10 0.423828C4.50511 0.423828 0.0625 4.86644 0.0625 10.3613C0.0625 15.8562 4.53636 20.3301 10.0312 20.3301C15.5261 20.3301 20 15.8562 20 10.3613ZM10 17.9238C5.84117 17.9238 2.46875 14.5252 2.46875 10.3613C2.46875 6.19997 5.83864 2.83008 10 2.83008C14.1639 2.83008 17.5625 6.2025 17.5625 10.3613C17.5625 14.5227 14.1614 17.9238 10 17.9238Z" fill="white" stroke="white"/>
</g>
<defs>
<clipPath id="clip0_660_1125">
<rect width="20" height="20" fill="white" transform="translate(0 0.361328)"/>
</clipPath>
</defs>
</svg>
