<svg width="17" height="18" viewBox="0 0 17 18" fill="none" xmlns="http://www.w3.org/2000/svg">
<path d="M6.99609 14.5137C8.39355 14.5137 9.70312 14.0918 10.793 13.3711L14.6426 17.2295C14.8975 17.4756 15.2227 17.5986 15.5742 17.5986C16.3037 17.5986 16.8398 17.0273 16.8398 16.3066C16.8398 15.9727 16.7256 15.6475 16.4795 15.4014L12.6562 11.5605C13.4473 10.4355 13.9131 9.07324 13.9131 7.59668C13.9131 3.79102 10.8018 0.679688 6.99609 0.679688C3.19922 0.679688 0.0791016 3.79102 0.0791016 7.59668C0.0791016 11.4023 3.19043 14.5137 6.99609 14.5137ZM6.99609 12.668C4.20996 12.668 1.9248 10.3828 1.9248 7.59668C1.9248 4.81055 4.20996 2.52539 6.99609 2.52539C9.78223 2.52539 12.0674 4.81055 12.0674 7.59668C12.0674 10.3828 9.78223 12.668 6.99609 12.668Z" fill="#8E8E93"/>
</svg>
